<svg xmlns="http://www.w3.org/2000/svg" width="100" height="100" viewBox="0 0 100 100">
  <g id="car" transform="translate(-562 -783)">
    <circle id="Ellipse_95" data-name="Ellipse 95" cx="3.333" cy="3.333" r="3.333" transform="translate(605.333 808)" fill="#7b7b7b"/>
    <ellipse id="Ellipse_96" data-name="Ellipse 96" cx="1.667" cy="2.872" rx="1.667" ry="2.872" transform="translate(605.333 808.462)" fill="#b0b0b0"/>
    <circle id="Ellipse_97" data-name="Ellipse 97" cx="3.333" cy="3.333" r="3.333" transform="translate(615.333 818)" fill="#7b7b7b"/>
    <ellipse id="Ellipse_98" data-name="Ellipse 98" cx="1.667" cy="2.872" rx="1.667" ry="2.872" transform="translate(615.333 818.462)" fill="#b0b0b0"/>
    <g id="Group_293" data-name="Group 293" transform="translate(562 783)">
      <path id="Path_203" data-name="Path 203" d="M42,8.667a6.593,6.593,0,0,0-1.692.243c0-.083.025-.16.025-.243A6.666,6.666,0,0,0,28.96,3.947a8.27,8.27,0,0,0-13.405,4.54A5,5,0,0,0,7,12,5,5,0,0,0,7,22c.078,0,.152-.02.228-.023A6.635,6.635,0,0,0,19.072,24.21,6.6,6.6,0,0,0,29.5,27.165,6.631,6.631,0,0,0,40.333,22c0-.083-.022-.16-.025-.243A6.593,6.593,0,0,0,42,22,6.667,6.667,0,0,0,42,8.667Z" transform="translate(-2 -2)" fill="#b0b0b0"/>
    </g>
    <path id="Path_204" data-name="Path 204" d="M37.333,38h0A3.332,3.332,0,0,0,34,41.333V48h6.667V41.333A3.332,3.332,0,0,0,37.333,38Z" transform="translate(581.333 805)" fill="#757575"/>
    <path id="Path_205" data-name="Path 205" d="M35.667,38.277A3.319,3.319,0,0,0,34,41.149v6.667h3.333V41.149A3.323,3.323,0,0,0,35.667,38.277Z" transform="translate(581.333 805.185)" fill="#9c9c9c"/>
    <path id="Path_206" data-name="Path 206" d="M92,64H8.667A6.667,6.667,0,0,1,2,57.333V50.667A6.667,6.667,0,0,1,8.667,44H92a10,10,0,0,1,10,10h0A10,10,0,0,1,92,64Z" transform="translate(560 809)" fill="#386d20"/>
    <path id="Path_207" data-name="Path 207" d="M97,54A10,10,0,0,0,87,44H8.667A6.667,6.667,0,0,0,2,50.667v6.667A6.667,6.667,0,0,0,8.667,64H87A10,10,0,0,0,97,54Z" transform="translate(560 809)" fill="#54a330"/>
    <rect id="Rectangle_477" data-name="Rectangle 477" width="20" height="20" transform="translate(605.333 853)" fill="#2a5218"/>
    <rect id="Rectangle_478" data-name="Rectangle 478" width="15" height="20" transform="translate(605.333 853)" fill="#386d20"/>
    <path id="Path_208" data-name="Path 208" d="M44,46.667V40H67.333v6.667" transform="translate(588 806.333)" fill="#066f81"/>
    <rect id="Rectangle_479" data-name="Rectangle 479" width="18.333" height="6.667" transform="translate(632 846.333)" fill="#0894ab"/>
    <path id="Path_209" data-name="Path 209" d="M16,50.667,32.667,34H41L24.333,50.667" transform="translate(569.333 802.333)" fill="#1ca3ba"/>
    <path id="Path_210" data-name="Path 210" d="M32.667,34,16,50.667h5L37.667,34Z" transform="translate(569.333 802.333)" fill="#25d9f8"/>
    <circle id="Ellipse_99" data-name="Ellipse 99" cx="10" cy="10" r="10" transform="translate(578.667 863)" fill="#4e4e4e"/>
    <circle id="Ellipse_100" data-name="Ellipse 100" cx="10" cy="10" r="10" transform="translate(632 863)" fill="#4e4e4e"/>
    <circle id="Ellipse_101" data-name="Ellipse 101" cx="3.333" cy="3.333" r="3.333" transform="translate(585.333 869.667)" fill="#fff"/>
    <circle id="Ellipse_102" data-name="Ellipse 102" cx="3.333" cy="3.333" r="3.333" transform="translate(638.667 869.667)" fill="#fff"/>
    <path id="Path_211" data-name="Path 211" d="M60.108,62.667a6.654,6.654,0,0,0-1.947-8.778,8.121,8.121,0,0,0,2.6-8.128,8.3,8.3,0,0,0,4.508-15.972A8.311,8.311,0,0,0,61,14.333c-.05,0-.1.013-.148.015a9.994,9.994,0,1,0-15.528,9.88,9.981,9.981,0,0,0,3.59,16.037,8.282,8.282,0,0,0,.232,14.928,6.523,6.523,0,0,0-.5,7.572" transform="translate(586 783.667)" fill="#7b7b7b"/>
    <g id="Group_294" data-name="Group 294" transform="translate(627 791.585)">
      <path id="Path_212" data-name="Path 212" d="M45.323,23.461A9.981,9.981,0,0,0,48.913,39.5,8.244,8.244,0,0,0,46.83,52.793a8.076,8.076,0,0,0,2.263-7.8A8.3,8.3,0,0,0,53.6,29.021a8.311,8.311,0,0,0-4.268-15.455c-.05,0-.1.013-.148.015a9.9,9.9,0,0,0-4.058-6.43,9.985,9.985,0,0,0,.2,16.31Z" transform="translate(-41 -7.151)" fill="#9c9c9c"/>
      <path id="Path_213" data-name="Path 213" d="M46.667,39.277a6.6,6.6,0,0,0-.823-3.192,6.432,6.432,0,0,0,0,6.377A6.634,6.634,0,0,0,46.667,39.277Z" transform="translate(-38.333 12.138)" fill="#9c9c9c"/>
    </g>
    <g id="Group_295" data-name="Group 295" transform="translate(613.667 858)">
      <rect id="Rectangle_480" data-name="Rectangle 480" width="6.667" height="3.333" fill="#7b7b7b"/>
    </g>
  </g>
</svg>
