<svg xmlns="http://www.w3.org/2000/svg" viewBox="0 0 25 25">
  <defs>
    <style>
      .cls-1 {
        fill: #fff;
      }
    </style>
  </defs>
  <g id="both-active" transform="translate(-1417 -61)">
    <path id="both-pasive" class="cls-1" d="M23.878,2.053H20.83a.714.714,0,0,0,0,1.428h1.753L18.875,7.22a7.61,7.61,0,0,0-7.711-.438,7.63,7.63,0,0,0-3.486-.844A7.745,7.745,0,0,0,6.97,21.389V23.37H5.117a.714.714,0,0,0,0,1.428H6.97v1.542a.708.708,0,1,0,1.416,0V24.8h1.852a.714.714,0,0,0,0-1.428H8.386V21.389a7.571,7.571,0,0,0,2.776-.811,7.632,7.632,0,0,0,3.486.844,7.752,7.752,0,0,0,5.337-13.3l3.6-3.629V6.257a.708.708,0,1,0,1.416,0V3.184A1.128,1.128,0,0,0,23.878,2.053ZM1.416,13.68A6.3,6.3,0,0,1,7.678,7.365a6.231,6.231,0,0,1,2.073.356A7.784,7.784,0,0,0,8.2,9.484a4.23,4.23,0,1,0,3.673,4.2v0a2.805,2.805,0,0,1,1.553-2.513,6.379,6.379,0,0,1,.516,2.513,6.262,6.262,0,1,1-12.524,0Zm6.071,2.793a2.8,2.8,0,0,1,0-5.586,7.8,7.8,0,0,0,0,5.586Zm7.352-5.586a2.806,2.806,0,0,1,1.772,4.773,2.745,2.745,0,0,1-1.773.813,7.8,7.8,0,0,0,0-5.586ZM20.91,13.68a6.3,6.3,0,0,1-6.262,6.314,6.232,6.232,0,0,1-2.073-.356,7.784,7.784,0,0,0,1.553-1.763,4.2,4.2,0,0,0,.52.032h0a4.148,4.148,0,0,0,2.965-1.238,4.211,4.211,0,1,0-7.158-2.992v0A2.805,2.805,0,0,1,8.9,16.193a6.379,6.379,0,0,1-.516-2.513,6.262,6.262,0,1,1,12.524,0Z" transform="translate(1417 58.947)"/>
  </g>
</svg>
