<svg id="Card_networks_MC-Horizontal" data-name="Card networks/MC-Horizontal" xmlns="http://www.w3.org/2000/svg" viewBox="0 0 24 16">
  <defs>
    <style>
      .cls-1 {
        fill: #ff5f00;
      }

      .cls-2 {
        fill: #eb001b;
      }

      .cls-3 {
        fill: #f79e1b;
      }
    </style>
  </defs>
  <path id="Fill_1" data-name="Fill 1" class="cls-1" d="M0,12.579H6.49V0H0Z" transform="translate(8.755 1.71)"/>
  <path id="Fill_2" data-name="Fill 2" class="cls-2" d="M9.167,8A8.226,8.226,0,0,1,12,1.71,7.052,7.052,0,0,0,7.416,0C3.32,0,0,3.582,0,8s3.32,8,7.416,8A7.052,7.052,0,0,0,12,14.29,8.227,8.227,0,0,1,9.167,8" transform="translate(0 0)"/>
  <path id="Fill_3" data-name="Fill 3" class="cls-3" d="M4.584,16a6.914,6.914,0,0,1-2.468-.453A7.248,7.248,0,0,1,0,14.29a7.78,7.78,0,0,0,1.17-1.242,8.12,8.12,0,0,0,.893-1.5,8.371,8.371,0,0,0,.569-1.7A8.644,8.644,0,0,0,2.833,8a8.644,8.644,0,0,0-.2-1.853,8.371,8.371,0,0,0-.569-1.7,8.12,8.12,0,0,0-.893-1.5A7.778,7.778,0,0,0,0,1.71,7.248,7.248,0,0,1,2.116.453,6.941,6.941,0,0,1,7.47.629,7.387,7.387,0,0,1,9.828,2.343a8.035,8.035,0,0,1,1.589,2.543,8.611,8.611,0,0,1,0,6.228,8.035,8.035,0,0,1-1.589,2.543A7.387,7.387,0,0,1,7.47,15.371,6.909,6.909,0,0,1,4.584,16ZM11.5,12.957h-.053v-.311h.075l.087.213.086-.213h.075v.31h-.053v-.235l-.081.2h-.055l-.081-.2v.234Zm-.206,0H11.24V12.7h-.1v-.053h.245V12.7h-.1v.257Z" transform="translate(12 0)"/>
</svg>
