<svg xmlns="http://www.w3.org/2000/svg" xmlns:xlink="http://www.w3.org/1999/xlink" viewBox="0 0 24 24">
  <defs>
    <style>
      .cls-1 {
        fill: none;
      }

      .cls-2 {
        fill: #fb3b71;
      }

      .cls-3 {
        fill: rgba(0,0,0,0);
      }

      .cls-4 {
        clip-path: url(#clip-path);
      }

      .cls-5 {
        clip-path: url(#clip-path-2);
      }
    </style>
    <clipPath id="clip-path">
      <path id="icon_action_compare_arrows_24px" data-name="icon/action/compare_arrows_24px" class="cls-1" d="M7.01,14V11H0V9H7.01V6L11,10,7.012,14Zm5.98-6,0,0L9,4l3.99-4V3H20V5H12.99V8Z" transform="translate(0 0)"/>
    </clipPath>
    <clipPath id="clip-path-2">
      <rect id="Rectangle" class="cls-2" width="24" height="24"/>
    </clipPath>
  </defs>
  <g id="change-48px" transform="translate(-176 -708)">
    <rect id="icon_action_alarm_add_24px_background" data-name="icon/action/alarm_add_24px background" class="cls-3" width="24" height="24" transform="translate(176 708)"/>
    <path id="icon_action_compare_arrows_24px-2" data-name="icon/action/compare_arrows_24px" class="cls-1" d="M7.01,14V11H0V9H7.01V6L11,10,7.012,14Zm5.98-6,0,0L9,4l3.99-4V3H20V5H12.99V8Z" transform="translate(178 713)"/>
    <g id="Group_254" data-name="Group 254" class="cls-4" transform="translate(178 713)">
      <g id="_Color" data-name="↳ Color" transform="translate(-2 -5)">
        <rect id="_Color_background" data-name="↳ Color background" class="cls-2" width="24" height="24"/>
        <rect id="Rectangle-2" data-name="Rectangle" class="cls-2" width="24" height="24"/>
      </g>
    </g>
  </g>
</svg>
