<svg xmlns="http://www.w3.org/2000/svg" viewBox="0 0 16 16">
  <defs>
    <style>
      .cls-1 {
        fill: #fff;
        opacity: 0;
      }

      .cls-2 {
        fill: #fb3b71;
      }
    </style>
  </defs>
  <g id="commercial" transform="translate(-340 -244)">
    <path id="Path_837" data-name="Path 837" class="cls-1" d="M0,0H16V16H0Z" transform="translate(340 244)"/>
    <g id="commercial-2" data-name="commercial" transform="translate(342.667 246.667)">
      <g id="Group_74" data-name="Group 74">
        <path id="Path_52" data-name="Path 52" class="cls-2" d="M10.349,18.864h-.318V10.077A1.147,1.147,0,0,0,8.973,8.861H6.061A1.147,1.147,0,0,0,5,10.077v1.614a1.109,1.109,0,0,0-.265-.035H1.826a1.031,1.031,0,0,0-1.059,1v6.211H.318a.332.332,0,0,0,0,.664H10.349a.332.332,0,0,0,0-.664ZM1.615,12.653c0-.033.074-.112.212-.112H4.738c.137,0,.212.079.212.112v6.211H1.615Zm4.235-2.576c0-.195.112-.331.212-.331H8.973c.1,0,.212.136.212.331v8.787H5.849Z" transform="translate(0 -8.861)"/>
        <path id="Path_53" data-name="Path 53" class="cls-2" d="M237.77,55.12h-.524a.314.314,0,0,0-.307.32v.547a.314.314,0,0,0,.307.32h.524a.314.314,0,0,0,.307-.32V55.44A.314.314,0,0,0,237.77,55.12Z" transform="translate(-230.768 -53.86)"/>
        <path id="Path_54" data-name="Path 54" class="cls-2" d="M237.77,112.02h-.524a.314.314,0,0,0-.307.32v.547a.314.314,0,0,0,.307.32h.524a.314.314,0,0,0,.307-.32v-.547A.314.314,0,0,0,237.77,112.02Z" transform="translate(-230.768 -109.211)"/>
        <path id="Path_55" data-name="Path 55" class="cls-2" d="M237.77,168.92h-.524a.314.314,0,0,0-.307.32v.547a.314.314,0,0,0,.307.32h.524a.314.314,0,0,0,.307-.32v-.547A.314.314,0,0,0,237.77,168.92Z" transform="translate(-230.768 -164.562)"/>
        <path id="Path_56" data-name="Path 56" class="cls-2" d="M297.377,55.12h-.524a.314.314,0,0,0-.307.32v.547a.314.314,0,0,0,.307.32h.524a.314.314,0,0,0,.307-.32V55.44A.314.314,0,0,0,297.377,55.12Z" transform="translate(-288.822 -53.86)"/>
        <path id="Path_57" data-name="Path 57" class="cls-2" d="M297.377,112.02h-.524a.314.314,0,0,0-.307.32v.547a.314.314,0,0,0,.307.32h.524a.314.314,0,0,0,.307-.32v-.547A.314.314,0,0,0,297.377,112.02Z" transform="translate(-288.822 -109.211)"/>
        <path id="Path_58" data-name="Path 58" class="cls-2" d="M297.377,168.92h-.524a.314.314,0,0,0-.307.32v.547a.314.314,0,0,0,.307.32h.524a.314.314,0,0,0,.307-.32v-.547A.314.314,0,0,0,297.377,168.92Z" transform="translate(-288.822 -164.562)"/>
        <path id="Path_59" data-name="Path 59" class="cls-2" d="M237.77,225.82h-.524a.314.314,0,0,0-.307.32v.547a.314.314,0,0,0,.307.32h.524a.314.314,0,0,0,.307-.32v-.547A.314.314,0,0,0,237.77,225.82Z" transform="translate(-230.768 -219.913)"/>
        <path id="Path_60" data-name="Path 60" class="cls-2" d="M237.77,282.72h-.524a.314.314,0,0,0-.307.32v.547a.314.314,0,0,0,.307.32h.524a.314.314,0,0,0,.307-.32v-.547A.314.314,0,0,0,237.77,282.72Z" transform="translate(-230.768 -275.263)"/>
        <path id="Path_61" data-name="Path 61" class="cls-2" d="M297.377,225.82h-.524a.314.314,0,0,0-.307.32v.547a.314.314,0,0,0,.307.32h.524a.314.314,0,0,0,.307-.32v-.547A.314.314,0,0,0,297.377,225.82Z" transform="translate(-288.822 -219.913)"/>
        <path id="Path_62" data-name="Path 62" class="cls-2" d="M297.377,282.72h-.524a.314.314,0,0,0-.307.32v.547a.314.314,0,0,0,.307.32h.524a.314.314,0,0,0,.307-.32v-.547A.314.314,0,0,0,297.377,282.72Z" transform="translate(-288.822 -275.263)"/>
        <path id="Path_63" data-name="Path 63" class="cls-2" d="M75.2,168.92h-.524a.314.314,0,0,0-.307.32v.547a.314.314,0,0,0,.307.32H75.2a.314.314,0,0,0,.307-.32v-.547A.314.314,0,0,0,75.2,168.92Z" transform="translate(-72.432 -164.562)"/>
        <path id="Path_64" data-name="Path 64" class="cls-2" d="M134.805,168.92h-.524a.314.314,0,0,0-.307.32v.547a.314.314,0,0,0,.307.32h.524a.314.314,0,0,0,.307-.32v-.547A.314.314,0,0,0,134.805,168.92Z" transform="translate(-130.485 -164.562)"/>
        <path id="Path_65" data-name="Path 65" class="cls-2" d="M75.2,225.82h-.524a.314.314,0,0,0-.307.32v.547a.314.314,0,0,0,.307.32H75.2a.314.314,0,0,0,.307-.32v-.547A.314.314,0,0,0,75.2,225.82Z" transform="translate(-72.432 -219.913)"/>
        <path id="Path_66" data-name="Path 66" class="cls-2" d="M75.2,282.72h-.524a.314.314,0,0,0-.307.32v.547a.314.314,0,0,0,.307.32H75.2a.314.314,0,0,0,.307-.32v-.547A.314.314,0,0,0,75.2,282.72Z" transform="translate(-72.432 -275.263)"/>
        <path id="Path_67" data-name="Path 67" class="cls-2" d="M134.805,225.82h-.524a.314.314,0,0,0-.307.32v.547a.314.314,0,0,0,.307.32h.524a.314.314,0,0,0,.307-.32v-.547A.314.314,0,0,0,134.805,225.82Z" transform="translate(-130.485 -219.913)"/>
        <path id="Path_68" data-name="Path 68" class="cls-2" d="M134.805,282.72h-.524a.314.314,0,0,0-.307.32v.547a.314.314,0,0,0,.307.32h.524a.314.314,0,0,0,.307-.32v-.547A.314.314,0,0,0,134.805,282.72Z" transform="translate(-130.485 -275.263)"/>
      </g>
    </g>
  </g>
</svg>
