<svg xmlns="http://www.w3.org/2000/svg" viewBox="0 0 50 50">
  <defs>
    <style>
      .cls-1 {
        fill: #fe5a76;
      }
    </style>
  </defs>
  <g id="diamond" transform="translate(-336 -618)">
    <path id="Union_2" data-name="Union 2" class="cls-1" d="M24.26,49.671.348,23.069l-.006-.007a.968.968,0,0,1-.095-1.385l8.629-9.636a1,1,0,0,1,.741-.33H40.382a1,1,0,0,1,.741.33l8.629,9.636a.968.968,0,0,1-.094,1.385l-.006.007L25.74,49.671a1,1,0,0,1-1.481,0ZM22.974,45.3,14.9,23.3H3.2Zm9.148-16.371a.973.973,0,0,1,.585,1.254L27.063,45.257,46.8,23.3H17l8.009,21.808,5.842-15.6a.989.989,0,0,1,.928-.638A1,1,0,0,1,32.122,28.927Zm4.006-7.581H46.815l-6.28-7.013Zm-18.258,0H32.13L25,14.268Zm-14.685,0H13.872L9.465,14.333ZM34.23,20.66l4.4-7H27.182Zm-18.459,0,7.048-7H11.373Zm16.316,5.547a.977.977,0,1,1,.976.977A.977.977,0,0,1,32.086,26.207ZM29.051,8.8a.977.977,0,0,1,0-1.381L32.608,3.86a.977.977,0,0,1,1.381,1.381L30.432,8.8a.976.976,0,0,1-1.381,0Zm-9.675,0L15.818,5.241A.977.977,0,0,1,17.2,3.86l3.557,3.557A.977.977,0,1,1,19.375,8.8Zm4.648-2.791V.977a.977.977,0,0,1,1.953,0V6.007a.977.977,0,0,1-1.953,0Z" transform="translate(335.999 618)"/>
  </g>
</svg>
