<svg xmlns="http://www.w3.org/2000/svg" viewBox="0 0 18 25">
  <defs>
    <style>
      .cls-1 {
        fill: #fff;
      }
    </style>
  </defs>
  <g id="female-active" transform="translate(-1250 -58)">
    <path id="Path_160" data-name="Path 160" class="cls-1" d="M86.653,8.985a9,9,0,1,0-9.718,8.956V20.7H74.611a.717.717,0,1,0,0,1.434h2.324v2.152a.718.718,0,0,0,1.436,0V22.131H80.7a.717.717,0,1,0,0-1.434H78.371V17.941A9,9,0,0,0,86.653,8.985Zm-16.564,0a7.564,7.564,0,1,1,7.564,7.551A7.566,7.566,0,0,1,70.089,8.985Z" transform="translate(1181.347 58)"/>
    <path id="Path_161" data-name="Path 161" class="cls-1" d="M159.116,85.6a4.859,4.859,0,1,0-4.859,4.851A4.86,4.86,0,0,0,159.116,85.6Zm-8.282,0a3.423,3.423,0,1,1,3.423,3.417A3.424,3.424,0,0,1,150.834,85.6Z" transform="translate(1104.743 -18.611)"/>
  </g>
</svg>
