<svg id="Group_1295" data-name="Group 1295" xmlns="http://www.w3.org/2000/svg" viewBox="0 0 42 16">
  <defs>
    <style>
      .cls-1 {
        fill: #fffffe;
      }

      .cls-2 {
        fill: #1a1919;
      }
    </style>
  </defs>
  <path id="Fill_4" data-name="Fill 4" class="cls-1" d="M39.007,0h.443l.36,0c.21,0,.456.01.685.035a2.751,2.751,0,0,1,.526.1,1.917,1.917,0,0,1,.429.19A1.263,1.263,0,0,1,41.765.6a.858.858,0,0,1,.171.321,1.766,1.766,0,0,1,.058.418c0,.073.005.145.006.22,0,.09,0,.18,0,.27V14.173c0,.09,0,.18,0,.272,0,.073,0,.146-.006.219a1.763,1.763,0,0,1-.058.419.855.855,0,0,1-.171.32,1.253,1.253,0,0,1-.313.263,1.907,1.907,0,0,1-.432.191,2.714,2.714,0,0,1-.522.1c-.234.025-.49.033-.682.036l-.366,0H2.547l-.358,0c-.2,0-.453-.01-.685-.036a2.723,2.723,0,0,1-.526-.105,1.9,1.9,0,0,1-.43-.191A1.244,1.244,0,0,1,.236,15.4a.861.861,0,0,1-.171-.321,1.78,1.78,0,0,1-.058-.417c0-.073,0-.146-.005-.219V1.556c0-.073,0-.146.005-.22A1.773,1.773,0,0,1,.065.918.86.86,0,0,1,.236.6,1.253,1.253,0,0,1,.548.335,1.915,1.915,0,0,1,.979.144,2.73,2.73,0,0,1,1.5.039C1.733.014,1.979.007,2.189,0l.359,0H39.007" transform="translate(0 0)"/>
  <path id="Fill_6" data-name="Fill 6" class="cls-2" d="M8.391,0C7.249-.063,6.278.642,5.732.642S4.352.038,3.448.054A3.375,3.375,0,0,0,.585,1.765c-1.227,2.08-.324,5.166.87,6.86.579.838,1.278,1.761,2.2,1.728.869-.034,1.21-.554,2.267-.554s1.363.554,2.284.537c.954-.017,1.551-.839,2.13-1.678a7.406,7.406,0,0,0,.954-1.928A3.054,3.054,0,0,1,9.431,3.962a3.1,3.1,0,0,1,1.5-2.6A3.283,3.283,0,0,0,8.391,0" transform="translate(0 2.333)"/>
  <path id="Fill_7" data-name="Fill 7" class="cls-2" d="M1.985,12.582H0V0H4.8A4.743,4.743,0,0,1,6.5.3a3.866,3.866,0,0,1,1.331.846A3.775,3.775,0,0,1,8.7,2.454a4.5,4.5,0,0,1,.309,1.679,4.463,4.463,0,0,1-.315,1.686A3.8,3.8,0,0,1,7.811,7.13a3.942,3.942,0,0,1-1.351.85,4.84,4.84,0,0,1-1.726.3H1.985v4.3Zm0-10.934v5H4.264c1.724,0,2.712-.912,2.712-2.5s-.985-2.494-2.7-2.494Z" transform="translate(14.981 0)"/>
  <path id="Fill_8" data-name="Fill 8" class="cls-2" d="M3.129,9.338a4,4,0,0,1-1.267-.194,2.935,2.935,0,0,1-.989-.549A2.449,2.449,0,0,1,.23,7.742,2.661,2.661,0,0,1,0,6.635,2.241,2.241,0,0,1,.913,4.744a4.887,4.887,0,0,1,2.642-.786L6.028,3.81v-.7a1.441,1.441,0,0,0-.493-1.172,2.156,2.156,0,0,0-1.4-.406,2.213,2.213,0,0,0-1.259.35,1.449,1.449,0,0,0-.621.932H.461C.514,1.184,2.08,0,4.184,0A4.339,4.339,0,0,1,6.91.811,2.675,2.675,0,0,1,7.934,2.982v6.26H6.1V7.734H6.054A3.285,3.285,0,0,1,3.129,9.338Zm2.9-4.22-2.207.139a2.778,2.778,0,0,0-1.409.394,1.079,1.079,0,0,0-.479.931c0,.768.678,1.264,1.728,1.264a2.6,2.6,0,0,0,1.689-.57,1.878,1.878,0,0,0,.678-1.453V5.118Z" transform="translate(24.48 3.34)"/>
  <path id="Fill_9" data-name="Fill 9" class="cls-2" d="M.922,12.494V10.986c.124.017.425.035.585.035A1.577,1.577,0,0,0,3.183,9.713l.177-.558L0,0H2.074L4.415,7.429h.044L6.8,0H8.821L5.337,9.617c-.8,2.206-1.711,2.93-3.643,2.93a5.48,5.48,0,0,1-.771-.053" transform="translate(33.179 3.453)"/>
</svg>
