<svg id="Group_1296" data-name="Group 1296" xmlns="http://www.w3.org/2000/svg" viewBox="0 0 22 16">
  <defs>
    <style>
      .cls-1 {
        fill: rgba(0,0,0,0);
      }

      .cls-2 {
        fill: #cd4045;
      }

      .cls-3 {
        fill: #d8232a;
      }

      .cls-4 {
        fill: #2d4c6c;
      }

      .cls-5 {
        fill: #0067a5;
      }

      .cls-6 {
        fill: #009294;
      }

      .cls-7 {
        fill: #fffffe;
      }
    </style>
  </defs>
  <rect id="Card_networks_Union-Pay_background" data-name="Card networks/Union-Pay background" class="cls-1" width="22" height="16"/>
  <path id="Fill_1" data-name="Fill 1" class="cls-2" d="M2.138,0H0L2.126,0h.012" transform="translate(13.183 0.038)"/>
  <path id="Fill_2" data-name="Fill 2" class="cls-3" d="M4.966,14.4,7.5,1.542A2.1,2.1,0,0,1,9.326,0L4.419,0a2.1,2.1,0,0,0-1.86,1.542L.029,14.4A1.855,1.855,0,0,0,0,14.631v.239a1.077,1.077,0,0,0,1.045,1.072H5.982A1.164,1.164,0,0,1,4.966,14.4" transform="translate(0.026 0.036)"/>
  <path id="Fill_3" data-name="Fill 3" class="cls-4" d="M3.831,0,.029,0,0,0H3.831" transform="translate(9.352 0.036)"/>
  <path id="Fill_4" data-name="Fill 4" class="cls-5" d="M6.006,14.4,8.535,1.54A2.1,2.1,0,0,1,10.352,0L8.225,0H4.395a2.1,2.1,0,0,0-1.83,1.54L.035,14.4A1.164,1.164,0,0,0,1.05,15.94H7.022A1.165,1.165,0,0,1,6.006,14.4" transform="translate(4.957 0.037)"/>
  <path id="Fill_5" data-name="Fill 5" class="cls-6" d="M9.741,0,4.393,0H4.38A2.1,2.1,0,0,0,2.563,1.539L.034,14.4A1.165,1.165,0,0,0,1.05,15.939H6.669A1.879,1.879,0,0,0,8.248,14.4L10.778,1.544C10.947.693,10.483,0,9.741,0" transform="translate(10.929 0.039)"/>
  <path id="Fill_6" data-name="Fill 6" class="cls-7" d="M3.172,3.69a.233.233,0,0,1-.186-.073.352.352,0,0,1-.065-.236l.042-1.265h.554l-.01.275h.147c.074,0,.111-.027.111-.081l.044-.178h.46l-.061.26a.444.444,0,0,1-.142.247.452.452,0,0,1-.271.093H3.5V3.2a.091.091,0,0,0,.018.065.2.2,0,0,0,.158.048h.277l-.089.373h-.69Zm-1.7,0H.43a.211.211,0,0,1-.189-.081A.4.4,0,0,1,.227,3.3l.2-.827H0l.108-.454H.533l.1-.439H.231l.108-.454h1.7l-.108.454H1.245l-.1.439h.664L1.7,2.473H1.033l-.154.648a.124.124,0,0,0,0,.1c.017.029.056.044.116.044l.036,0H1.57l-.1.422Zm1.1-.016H1.965c-.143,0-.236-.031-.277-.092a.188.188,0,0,1-.016-.151L2.479.01h.57L3.022.276h0A1.154,1.154,0,0,1,3.633,0H4.708L4.3,1.71a.317.317,0,0,1-.135.22.544.544,0,0,1-.3.073H2.64L2.355,3.2a.09.09,0,0,0,0,.071.071.071,0,0,0,.064.026h.24l-.088.373Zm.25-2.45-.081.34h.867l.026,0c.055,0,.086-.033.09-.1l.059-.243H2.824ZM3,.494,2.885.955h0A.742.742,0,0,1,3.311.818l.266,0,.3,0h0L3.959.494ZM.845.965H.34l.1-.438H.538a.165.165,0,0,0,.17-.1L.949.013h.646L1.46.286h.775L2.137.7H1.215a.609.609,0,0,1-.168.2A.344.344,0,0,1,.845.965Z" transform="translate(9.01 8.881)"/>
  <path id="Fill_7" data-name="Fill 7" class="cls-7" d="M2.622,3.7H2.016l.112-.454h.18a.233.233,0,0,0,.19-.114l.488-.811h-.63l.117-.47h.683l.109-.438H2.581L2.7.941H4.675l-.116.471H3.93l-.108.438H4.45l-.117.47h-.7l-.158.276h.343l.079.551c.009.054.051.082.124.082h.106l-.112.454H3.6a.3.3,0,0,1-.2-.057.229.229,0,0,1-.073-.171l-.091-.5-.312.536A.332.332,0,0,1,2.622,3.7Zm-.8,0H1.188l.053-.211H0L.121,3H.245L.851.552H.726L.854.032H1.5L1.476.223h0a1.465,1.465,0,0,1,.57-.19h.8L2.722.552H2.6L1.99,3h.126L2,3.488H1.87L1.817,3.7ZM.946,2.5h0L.821,3h.485l.124-.5H.946Zm.239-.972-.166.694h0a1.628,1.628,0,0,1,.527-.192c.057-.245.113-.46.124-.5H1.185ZM1.426.552l-.165.663h0a2.433,2.433,0,0,1,.525-.159c.042-.182.1-.391.123-.5v0ZM3.136.8A.211.211,0,0,1,2.9.567L2.877,0h.61l.026.259A.1.1,0,0,0,3.53.326a.1.1,0,0,0,.086.03h.108L3.614.795H3.136Z" transform="translate(13.601 8.874)"/>
  <path id="Fill_8" data-name="Fill 8" class="cls-7" d="M2.623,2.5a1.6,1.6,0,0,1-.519.978,1.547,1.547,0,0,1-1.036.341,1.052,1.052,0,0,1-.875-.349A.994.994,0,0,1,0,2.835,1.933,1.933,0,0,1,.033,2.5L.483,0h.68L.719,2.467A.913.913,0,0,0,.7,2.656a.533.533,0,0,0,.082.311.438.438,0,0,0,.393.18.75.75,0,0,0,.516-.177.843.843,0,0,0,.26-.5L2.4,0h.677L2.623,2.5" transform="translate(2.64 4.118)"/>
  <path id="Fill_9" data-name="Fill 9" class="cls-7" d="M.387.056h.48L.813.378.882.286A.707.707,0,0,1,1.45,0a.49.49,0,0,1,.439.2.761.761,0,0,1,.072.564L1.7,2.285H1.2L1.442.909a.5.5,0,0,0-.02-.316.221.221,0,0,0-.213-.1A.429.429,0,0,0,.888.627a.708.708,0,0,0-.173.378l-.22,1.28H0L.387.056" transform="translate(5.502 5.574)"/>
  <path id="Fill_10" data-name="Fill 10" class="cls-7" d="M.387.056H.868L.814.378.882.286A.709.709,0,0,1,1.45,0a.489.489,0,0,1,.439.2.759.759,0,0,1,.072.564L1.7,2.285H1.2L1.442.909a.5.5,0,0,0-.02-.316.222.222,0,0,0-.212-.1A.432.432,0,0,0,.888.627a.7.7,0,0,0-.173.378L.494,2.285H0L.387.056" transform="translate(11.011 5.574)"/>
  <path id="Fill_11" data-name="Fill 11" class="cls-7" d="M.532,3.038H0L.416.811H.949Zm.489-2.5H.483L.584,0h.537l-.1.54Z" transform="translate(7.703 4.82)"/>
  <path id="Fill_12" data-name="Fill 12" class="cls-7" d="M.779,2.342A.736.736,0,0,1,.21,2.115.9.9,0,0,1,0,1.494c0-.046,0-.1.008-.151S.02,1.226.028,1.18a1.592,1.592,0,0,1,.4-.861A1.011,1.011,0,0,1,1.182,0,.73.73,0,0,1,1.75.231a.909.909,0,0,1,.209.629c0,.043,0,.1-.008.154s-.013.11-.022.166a1.545,1.545,0,0,1-.4.848A1.017,1.017,0,0,1,.779,2.342ZM1.1.492A.443.443,0,0,0,.735.671a1.2,1.2,0,0,0-.2.54c0,.032-.01.066-.015.11a.94.94,0,0,0,0,.1A.488.488,0,0,0,.6,1.739a.313.313,0,0,0,.26.112.445.445,0,0,0,.362-.176,1.173,1.173,0,0,0,.2-.53c.007-.042.012-.079.015-.114s0-.071,0-.105A.5.5,0,0,0,1.356.606.313.313,0,0,0,1.1.492Z" transform="translate(8.913 5.573)"/>
  <path id="Fill_13" data-name="Fill 13" class="cls-7" d="M.648,3.609H0L.645,0h1.4a.861.861,0,0,1,.619.207.8.8,0,0,1,.213.6V.813c0,.055,0,.117-.007.165s-.016.123-.027.183a1.469,1.469,0,0,1-.425.829,1.111,1.111,0,0,1-.785.314H.879l-.231,1.3ZM1.183.618.993,1.677h.621A.55.55,0,0,0,2,1.548a.7.7,0,0,0,.188-.4c0-.021.006-.041.009-.06l0-.031V1.047c0-.021,0-.043,0-.063A.324.324,0,0,0,2.085.705.631.631,0,0,0,1.71.618Z" transform="translate(13.13 4.25)"/>
  <path id="Fill_14" data-name="Fill 14" class="cls-7" d="M1.4,2.658a3.6,3.6,0,0,1-.515.928A.994.994,0,0,1,0,4.009l.047-.382c.461-.163.71-.9.852-1.224L.73.005,1.086,0h.3l.032,1.5L1.978,0h.567L1.4,2.658" transform="translate(17.497 5.632)"/>
  <path id="Fill_15" data-name="Fill 15" class="cls-7" d="M.515,2.119h0A.493.493,0,0,1,.02,1.658,1.9,1.9,0,0,1,.118.75,1.153,1.153,0,0,1,.536.115.83.83,0,0,1,.922,0,.709.709,0,0,1,1.4.236L1.627.058,2.158,0l-.4,2.1-.612-.018-.089-.121A1.279,1.279,0,0,1,.515,2.119Zm.57-1.64a.344.344,0,0,0-.242.14A.989.989,0,0,0,.655.98a.892.892,0,0,0,0,.576A.244.244,0,0,0,.789,1.7a.177.177,0,0,0,.061.011c.163,0,.343-.211.429-.5a.89.89,0,0,0,0-.576A.245.245,0,0,0,1.145.489.175.175,0,0,0,1.085.478Z" transform="translate(15.688 5.755)"/>
</svg>
