<svg xmlns="http://www.w3.org/2000/svg" viewBox="0 0 50 50">
  <defs>
    <style>
      .cls-1 {
        fill: #e68942;
      }
    </style>
  </defs>
  <g id="guitar" transform="translate(16747 22491)">
    <path id="Path_20" data-name="Path 20" class="cls-1" d="M1.388,17.266a2.908,2.908,0,0,0,1.269.275,3.828,3.828,0,0,0,.816-.091,2.643,2.643,0,0,0,2.3-3.138h0L3.929,5.846l7.764-1.694,1.369,6.274a3.666,3.666,0,0,0-1.46.044c-1.716.374-2.655,1.612-2.335,3.08a2.508,2.508,0,0,0,2.6,1.984,3.8,3.8,0,0,0,.806-.09,2.643,2.643,0,0,0,2.3-3.138h0L12.511,1.024A1.3,1.3,0,0,0,10.962.031L2.877,1.794a1.3,1.3,0,0,0-.993,1.546l1.983,9.092a3.665,3.665,0,0,0-1.46.044,3.333,3.333,0,0,0-1.82.989,2.33,2.33,0,0,0-.515,2.09A2.419,2.419,0,0,0,1.388,17.266Zm10.968-3.253c-.333.072-1.438.232-1.657-.775-.194-.89.678-1.219,1.216-1.336a2.686,2.686,0,0,1,.563-.067.965.965,0,0,1,1.062.783h0C13.76,13.625,12.69,13.94,12.356,14.013ZM11.115,1.5l.267,1.224L3.617,4.415,3.35,3.191ZM1.686,14.435a1.93,1.93,0,0,1,1.033-.527,2.686,2.686,0,0,1,.563-.067.965.965,0,0,1,1.062.783h0c.219,1.007-.851,1.322-1.184,1.395a1.79,1.79,0,0,1-1.136-.072.944.944,0,0,1-.521-.7A.855.855,0,0,1,1.686,14.435Zm0,0" transform="translate(-16747.01 -22491)"/>
    <path id="Path_21" data-name="Path 21" class="cls-1" d="M339.4,340.369a1.292,1.292,0,0,0-.719-.688l-7.714-3a1.3,1.3,0,0,0-1.683.741l-3.372,8.68a3.622,3.622,0,0,0-1.239-.777,3.334,3.334,0,0,0-2.063-.181,2.33,2.33,0,0,0-1.584,1.458,2.418,2.418,0,0,0,.152,2.152,3.2,3.2,0,0,0,1.636,1.305,3.541,3.541,0,0,0,1.281.253,2.45,2.45,0,0,0,2.372-1.6l3.138-8.077,7.407,2.878-2.328,5.993a3.623,3.623,0,0,0-1.239-.776c-1.637-.636-3.1-.123-3.647,1.277a2.417,2.417,0,0,0,.153,2.152,3.2,3.2,0,0,0,1.636,1.305,3.551,3.551,0,0,0,1.281.253,2.449,2.449,0,0,0,2.372-1.6l4.182-10.764A1.293,1.293,0,0,0,339.4,340.369ZM323.348,348.7a1.786,1.786,0,0,1-.907-.688.946.946,0,0,1-.046-.874.856.856,0,0,1,.6-.574,1.269,1.269,0,0,1,.33-.04,2.308,2.308,0,0,1,.822.172,1.857,1.857,0,0,1,.918.667.869.869,0,0,1,.042.828C324.732,349.149,323.666,348.82,323.348,348.7Zm6.791-9.42.454-1.168L338,340.987l-.454,1.168Zm1.982,12.829a1.786,1.786,0,0,1-.907-.688.945.945,0,0,1-.047-.873.917.917,0,0,1,.927-.619,2.37,2.37,0,0,1,.824.177,1.857,1.857,0,0,1,.918.667.868.868,0,0,1,.042.828C333.5,352.558,332.439,352.229,332.121,352.106Zm0,0" transform="translate(-17036.514 -22794.725)"/>
    <path id="Path_22" data-name="Path 22" class="cls-1" d="M21.512,230.121c-4.5,3.273-11.358,2.2-15.943-2.491a13.916,13.916,0,0,1-4.1-9.855,9.965,9.965,0,0,1,3.012-7.138,9.762,9.762,0,0,1,4.957-2.478,11.859,11.859,0,0,0,6.607-3.6.732.732,0,0,0-1.074-1,10.407,10.407,0,0,1-5.8,3.158,11.222,11.222,0,0,0-5.7,2.854A11.418,11.418,0,0,0,0,217.747a15.387,15.387,0,0,0,4.517,10.907,15.519,15.519,0,0,0,10.94,4.816,11.66,11.66,0,0,0,6.911-2.164.732.732,0,0,0-.861-1.185Zm0,0" transform="translate(-16747 -22674.471)"/>
    <path id="Path_23" data-name="Path 23" class="cls-1" d="M165.433,31.928a7.169,7.169,0,0,0,2.115-5.7,11.689,11.689,0,0,0-1.921-5.4L170.3,16.15a.732.732,0,1,0-1.035-1.036L156.3,28.074a5.641,5.641,0,0,0-3.107-3.107L168.453,9.71l3.108,3.108-.087.087a.732.732,0,0,0,1.036,1.036l.185-.185a1.2,1.2,0,0,0,.362.056h.038a1.216,1.216,0,0,0,.872-.411l.777-.883.834.834a.732.732,0,1,0,1.036-1.036l-.9-.9,1.223-1.389.871.871a.733.733,0,1,0,1.036-1.036l-.937-.936,1.214-1.379.631.631a.733.733,0,0,0,1.036-1.036l-.7-.7.879-1a1.216,1.216,0,0,0-.052-1.66L177.493.361a1.216,1.216,0,0,0-1.66-.053l-1,.879-.7-.7A.732.732,0,1,0,173.1,1.527l.631.631-1.378,1.213-.945-.945a.732.732,0,0,0-1.036,1.036l.879.879-1.39,1.224-.9-.9A.732.732,0,1,0,167.929,5.7l.834.834-.883.777a1.208,1.208,0,0,0-.359,1.258l-7.065,7.066c-4.118-2.646-8.264-2.662-10.926,0a9.681,9.681,0,0,0-1.6,2.04.732.732,0,1,0,1.271.727,8.271,8.271,0,0,1,1.368-1.731c2.911-2.912,6.9-1.133,8.826.028l-7.875,7.876c-.139-.01-.278-.017-.419-.017a5.616,5.616,0,1,0,5.615,5.616c0-.141-.007-.28-.017-.419l7.866-7.866c1.149,1.936,2.882,5.957-.164,9a7.146,7.146,0,0,1-1.628,1.22,12,12,0,0,0-6.2,8.442,9.789,9.789,0,0,1-1.733,4.064.732.732,0,1,0,1.18.868,11.241,11.241,0,0,0,1.994-4.666,10.556,10.556,0,0,1,5.465-7.423A8.617,8.617,0,0,0,165.433,31.928ZM176.624,1.564l3.091,3.091-6.671,7.576-4-4ZM154.03,33.11a4.151,4.151,0,1,1,1.215-2.935A4.123,4.123,0,0,1,154.03,33.11Zm0,0" transform="translate(-16878.273 -22491.006)"/>
    <path id="Path_24" data-name="Path 24" class="cls-1" d="M56.955,327.954a2.538,2.538,0,0,0,0,3.585l7.479,7.479a2.535,2.535,0,0,0,3.585-3.586l-7.479-7.479a2.535,2.535,0,0,0-3.585,0Zm10.028,8.515a1.07,1.07,0,0,1-1.514,1.514L57.991,330.5a1.07,1.07,0,1,1,1.514-1.514Zm0,0" transform="translate(-16797.725 -22786.256)"/>
    <path id="Path_25" data-name="Path 25" class="cls-1" d="M355.789,130.364a.732.732,0,0,0,.518-1.25l-1.562-1.563a.733.733,0,0,0-1.036,1.036l1.563,1.563A.73.73,0,0,0,355.789,130.364Zm0,0" transform="translate(-17065.973 -22605.9)"/>
    <path id="Path_26" data-name="Path 26" class="cls-1" d="M333.625,152.532a.732.732,0,0,0,.518-1.25l-1.562-1.563a.732.732,0,1,0-1.036,1.036l1.563,1.563A.73.73,0,0,0,333.625,152.532Zm0,0" transform="translate(-17045.973 -22625.904)"/>
    <path id="Path_27" data-name="Path 27" class="cls-1" d="M311.457,174.7a.732.732,0,0,0,.518-1.25l-1.562-1.562a.732.732,0,1,0-1.036,1.036l1.563,1.563A.73.73,0,0,0,311.457,174.7Zm0,0" transform="translate(-17025.971 -22645.904)"/>
    <path id="Path_28" data-name="Path 28" class="cls-1" d="M289.293,196.865a.732.732,0,0,0,.518-1.25l-1.562-1.562a.732.732,0,1,0-1.036,1.036l1.563,1.563A.73.73,0,0,0,289.293,196.865Zm0,0" transform="translate(-17005.971 -22665.908)"/>
    <path id="Path_29" data-name="Path 29" class="cls-1" d="M265.045,216.22a.733.733,0,0,0,0,1.036l1.563,1.563a.732.732,0,1,0,1.036-1.036l-1.563-1.562A.732.732,0,0,0,265.045,216.22Zm0,0" transform="translate(-16985.967 -22685.91)"/>
    <path id="Path_30" data-name="Path 30" class="cls-1" d="M406.069,74.56a.732.732,0,1,0,0,1.036A.732.732,0,0,0,406.069,74.56Zm0,0" transform="translate(-17112.285 -22558.084)"/>
    <path id="Path_31" data-name="Path 31" class="cls-1" d="M424.056,92.392a.732.732,0,1,0,0,1.036A.733.733,0,0,0,424.056,92.392Zm0,0" transform="translate(-17128.516 -22574.176)"/>
    <path id="Path_32" data-name="Path 32" class="cls-1" d="M428.576,52.017a.732.732,0,1,0,0,1.036A.732.732,0,0,0,428.576,52.017Zm0,0" transform="translate(-17132.596 -22537.744)"/>
    <path id="Path_33" data-name="Path 33" class="cls-1" d="M446.576,69.869a.732.732,0,1,0,0,1.036A.732.732,0,0,0,446.576,69.869Zm0,0" transform="translate(-17148.838 -22553.852)"/>
    <path id="Path_34" data-name="Path 34" class="cls-1" d="M451.1,29.5a.732.732,0,1,0,0,1.036A.732.732,0,0,0,451.1,29.5Zm0,0" transform="translate(-17152.916 -22517.424)"/>
    <path id="Path_35" data-name="Path 35" class="cls-1" d="M469.092,47.345a.732.732,0,1,0,0,1.036A.732.732,0,0,0,469.092,47.345Zm0,0" transform="translate(-17169.154 -22533.527)"/>
  </g>
</svg>
