<svg xmlns="http://www.w3.org/2000/svg" xmlns:xlink="http://www.w3.org/1999/xlink" viewBox="0 0 100 100">
  <defs>
    <style>
      .cls-1 {
        fill: none;
      }

      .cls-2 {
        fill: #21cbb8;
      }

      .cls-3 {
        fill: rgba(0,0,0,0);
      }

      .cls-4 {
        clip-path: url(#clip-path);
      }

      .cls-5 {
        clip-path: url(#clip-path-2);
      }
    </style>
    <clipPath id="clip-path">
      <path id="icon_places_spa_24px" data-name="icon/places/spa_24px" class="cls-1" d="M50,100h0a53.8,53.8,0,0,1-9.85-2.547A60.167,60.167,0,0,1,11.318,75.569,60.957,60.957,0,0,1,0,40,58.762,58.762,0,0,1,34.609,51.172c-.229-.151-.462-.3-.708-.448l-.079-.049-.05-.031c-.4-.25-.74-.464-1.071-.693a11.65,11.65,0,0,0,1.055.7l.065.04.036.023c.314.187.6.367.842.535a60.191,60.191,0,0,1,15.3,16A59.744,59.744,0,0,1,100,40,60.934,60.934,0,0,1,88.682,75.569,60.167,60.167,0,0,1,59.851,97.453,64.029,64.029,0,0,1,50,100ZM11.3,51.3h0A51.254,51.254,0,0,0,22.662,73.765,50.326,50.326,0,0,0,43.551,88.052a45.269,45.269,0,0,0,6.4,1.8A62.915,62.915,0,0,0,56.6,88,49.807,49.807,0,0,0,77.374,73.751,51.435,51.435,0,0,0,88.7,51.251a49.708,49.708,0,0,0-16.052,7l.054.1-.113.076-.183.119c-.347.226-.705.459-1.054.655L71,59.45a50.7,50.7,0,0,0-12.65,13.3L50,85.5,41.652,72.7A49.456,49.456,0,0,0,29.1,59.45l-.351-.2A20.346,20.346,0,0,1,26.9,58.068L26.8,58l.1-.05A50.556,50.556,0,0,0,11.3,51.3Zm38.7,0,0,0A69.067,69.067,0,0,0,32.549,38.151,61.221,61.221,0,0,1,50.3,0a59.272,59.272,0,0,1,17.15,38.151A71.708,71.708,0,0,0,50,51.3Zm.252-35.352A50.873,50.873,0,0,0,43.4,32.9a79.155,79.155,0,0,1,6.651,4.851,68.7,68.7,0,0,1,6.7-4.9A50.588,50.588,0,0,0,50.252,15.948Z" transform="translate(0 0)"/>
    </clipPath>
    <clipPath id="clip-path-2">
      <rect id="Rectangle" class="cls-2" width="120.001" height="120.001"/>
    </clipPath>
  </defs>
  <g id="home-garden-100x100" transform="translate(-208 -618)">
    <rect id="icon_action_stars_24px_background" data-name="icon/action/stars_24px background" class="cls-3" width="100" height="100" transform="translate(208 618)"/>
    <path id="icon_places_spa_24px-2" data-name="icon/places/spa_24px" class="cls-1" d="M32.221,64.443h0A34.67,34.67,0,0,1,25.873,62.8,38.773,38.773,0,0,1,7.293,48.7,39.282,39.282,0,0,1,0,25.778a37.868,37.868,0,0,1,22.3,7.2c-.147-.1-.3-.19-.456-.289l-.051-.031-.032-.02c-.26-.161-.477-.3-.69-.447a7.507,7.507,0,0,0,.68.453l.042.026.023.015c.2.121.385.237.542.345a38.788,38.788,0,0,1,9.86,10.309A38.5,38.5,0,0,1,64.443,25.778,39.267,39.267,0,0,1,57.149,48.7a38.773,38.773,0,0,1-18.58,14.1,41.261,41.261,0,0,1-6.347,1.641ZM7.282,33.059h0A33.029,33.029,0,0,0,14.6,47.536a32.432,32.432,0,0,0,13.462,9.207,29.174,29.174,0,0,0,4.124,1.16,40.545,40.545,0,0,0,4.286-1.192,32.1,32.1,0,0,0,13.386-9.184,33.146,33.146,0,0,0,7.3-14.5,32.033,32.033,0,0,0-10.344,4.509l.035.067-.073.049-.118.077c-.223.145-.454.3-.679.422l-.226.16A32.671,32.671,0,0,0,37.6,46.883L32.221,55.1l-5.379-8.247a31.871,31.871,0,0,0-8.088-8.54l-.226-.128a13.112,13.112,0,0,1-1.193-.763l-.062-.043.064-.032A32.579,32.579,0,0,0,7.282,33.059Zm24.94,0,0,0a44.509,44.509,0,0,0-11.243-8.471A39.452,39.452,0,0,1,32.416,0,38.2,38.2,0,0,1,43.467,24.586a46.21,46.21,0,0,0-11.243,8.471Zm.162-22.782A32.784,32.784,0,0,0,27.967,21.2a51.011,51.011,0,0,1,4.286,3.126,44.271,44.271,0,0,1,4.318-3.158A32.6,32.6,0,0,0,32.384,10.277Z" transform="translate(225.778 635.778)"/>
    <g id="Group_5" data-name="Group 5" class="cls-4" transform="translate(208 618)">
      <g id="_Color" data-name="↳ Color" transform="translate(-10 -10)">
        <rect id="_Color_background" data-name="↳ Color background" class="cls-2" width="120.001" height="120.001"/>
        <rect id="Rectangle-2" data-name="Rectangle" class="cls-2" width="120.001" height="120.001"/>
      </g>
    </g>
  </g>
</svg>
