<svg xmlns="http://www.w3.org/2000/svg" viewBox="0 0 16 16">
  <defs>
    <style>
      .cls-1 {
        fill: #fb3b71;
      }
    </style>
  </defs>
  <g id="like" transform="translate(-20 -1312)">
    <path id="like-2" data-name="like" class="cls-1" d="M15.974,6.6c-.234-2.765-2.053-4.771-4.33-4.771A4.257,4.257,0,0,0,7.956,4.112a4.11,4.11,0,0,0-3.6-2.286C2.08,1.826.26,3.832.027,6.6A5.281,5.281,0,0,0,.163,8.41a7.907,7.907,0,0,0,2.215,3.976l5.574,5.441,5.67-5.44A7.908,7.908,0,0,0,15.837,8.41,5.293,5.293,0,0,0,15.974,6.6Z" transform="translate(20 1310.174)"/>
  </g>
</svg>
