<svg xmlns="http://www.w3.org/2000/svg" viewBox="0 0 25 25">
  <defs>
    <style>
      .cls-1 {
        fill: #121212;
      }
    </style>
  </defs>
  <g id="male-pasive" transform="translate(-1159 -123)">
    <path id="Path_164" data-name="Path 164" class="cls-1" d="M92.984,196.559a5.216,5.216,0,1,0,3.688,1.528A5.182,5.182,0,0,0,92.984,196.559Zm2.674,7.89a3.781,3.781,0,1,1,1.108-2.674A3.757,3.757,0,0,1,95.658,204.449Z" transform="translate(1075.728 -63.489)"/>
    <path id="Path_165" data-name="Path 165" class="cls-1" d="M23.6,0h-5.35a.717.717,0,1,0,0,1.434H22.6L16.1,7.928a9.712,9.712,0,1,0,1.014,1.014L23.61,2.449V6.793a.717.717,0,0,0,.717.717h0a.717.717,0,0,0,.717-.717V1.444A1.445,1.445,0,0,0,23.6,0ZM15.612,21.14a8.279,8.279,0,1,1,2.426-5.855A8.228,8.228,0,0,1,15.612,21.14Z" transform="translate(1158.955 123)"/>
  </g>
</svg>
