<svg xmlns="http://www.w3.org/2000/svg" viewBox="0 0 25 7">
  <defs>
    <style>
      .cls-1 {
        fill: none;
      }

      .cls-2, .cls-3 {
        stroke: none;
      }

      .cls-3 {
        fill: #121212;
      }
    </style>
  </defs>
  <g id="more" transform="translate(-1354 -557)">
    <g id="Path_393" data-name="Path 393" class="cls-1" transform="translate(1354 535)">
      <path class="cls-2" d="M3.333,22a3.5,3.5,0,0,0,0,7,3.5,3.5,0,0,0,0-7Z"/>
      <path class="cls-3" d="M 3.333333253860474 24 C 2.598133087158203 24 2.000003337860107 24.67289924621582 2.000003337860107 25.5 C 2.000003337860107 26.32710075378418 2.598133087158203 27 3.333333253860474 27 C 4.068532943725586 27 4.66666316986084 26.32710075378418 4.66666316986084 25.5 C 4.66666316986084 24.67289924621582 4.068532943725586 24 3.333333253860474 24 M 3.333333253860474 22 C 5.171253204345703 22 6.66666316986084 23.5701904296875 6.66666316986084 25.5 C 6.66666316986084 27.4298095703125 5.171253204345703 29 3.333333253860474 29 C 1.495413303375244 29 3.337860107421875e-06 27.4298095703125 3.337860107421875e-06 25.5 C 3.337860107421875e-06 23.5701904296875 1.495413303375244 22 3.333333253860474 22 Z"/>
    </g>
    <g id="Path_394" data-name="Path 394" class="cls-1" transform="translate(1328.333 535)">
      <path class="cls-2" d="M47.333,22a3.5,3.5,0,1,0,3.333,3.5A3.424,3.424,0,0,0,47.333,22Z"/>
      <path class="cls-3" d="M 47.33333206176758 24 C 46.5981330871582 24 46.00000381469727 24.67289924621582 46.00000381469727 25.5 C 46.00000381469727 26.32710075378418 46.5981330871582 27 47.33333206176758 27 C 48.06853103637695 27 48.66666030883789 26.32710075378418 48.66666030883789 25.5 C 48.66666030883789 24.67289924621582 48.06853103637695 24 47.33333206176758 24 M 47.33333206176758 22 C 49.1712532043457 22 50.66666030883789 23.5701904296875 50.66666030883789 25.5 C 50.66666030883789 27.4298095703125 49.1712532043457 29 47.33333206176758 29 C 45.49541091918945 29 44.00000381469727 27.4298095703125 44.00000381469727 25.5 C 44.00000381469727 23.5701904296875 45.49541091918945 22 47.33333206176758 22 Z"/>
    </g>
    <g id="Path_395" data-name="Path 395" class="cls-1" transform="translate(1341.167 535)">
      <path class="cls-2" d="M25.333,22a3.5,3.5,0,1,0,3.333,3.5A3.424,3.424,0,0,0,25.333,22Z"/>
      <path class="cls-3" d="M 25.33333206176758 24 C 24.59813117980957 24 24.00000190734863 24.67289924621582 24.00000190734863 25.5 C 24.00000190734863 26.32710075378418 24.59813117980957 27 25.33333206176758 27 C 26.06853294372559 27 26.66666221618652 26.32710075378418 26.66666221618652 25.5 C 26.66666221618652 24.67289924621582 26.06853294372559 24 25.33333206176758 24 M 25.33333206176758 22 C 27.17125129699707 22 28.66666221618652 23.5701904296875 28.66666221618652 25.5 C 28.66666221618652 27.4298095703125 27.17125129699707 29 25.33333206176758 29 C 23.49541282653809 29 22.00000190734863 27.4298095703125 22.00000190734863 25.5 C 22.00000190734863 23.5701904296875 23.49541282653809 22 25.33333206176758 22 Z"/>
    </g>
  </g>
</svg>
