<svg xmlns="http://www.w3.org/2000/svg" viewBox="0 0 18 25.04">
  <defs>
    <style>
      .cls-1 {
        fill: none;
      }

      .cls-2, .cls-4 {
        fill: #fff;
      }

      .cls-3, .cls-4 {
        stroke: none;
      }
    </style>
  </defs>
  <g id="non-binary-active" transform="translate(-1503 -57.601)">
    <g id="Path_296" data-name="Path 296" class="cls-1" transform="translate(1503 64.896)">
      <path class="cls-3" d="M9,0a8.937,8.937,0,0,1,9,8.873,8.937,8.937,0,0,1-9,8.873A8.937,8.937,0,0,1,0,8.873,8.937,8.937,0,0,1,9,0Z"/>
      <path class="cls-4" d="M 9 1.399995803833008 C 4.80935001373291 1.399995803833008 1.399999618530273 4.752165794372559 1.399999618530273 8.872546195983887 C 1.399999618530273 12.9929256439209 4.80935001373291 16.34509658813477 9 16.34509658813477 C 13.19064998626709 16.34509658813477 16.60000038146973 12.9929256439209 16.60000038146973 8.872546195983887 C 16.60000038146973 4.752165794372559 13.19064998626709 1.399995803833008 9 1.399995803833008 M 9 -3.814697265625e-06 C 13.97056007385254 -3.814697265625e-06 18 3.972375869750977 18 8.872546195983887 C 18 13.7727165222168 13.97056007385254 17.74509620666504 9 17.74509620666504 C 4.029439926147461 17.74509620666504 0 13.7727165222168 0 8.872546195983887 C 0 3.972375869750977 4.029439926147461 -3.814697265625e-06 9 -3.814697265625e-06 Z"/>
    </g>
    <path id="Path_295" data-name="Path 295" class="cls-2" d="M9,4.436A4.474,4.474,0,0,0,4.5,0,4.474,4.474,0,0,0,0,4.436,4.474,4.474,0,0,0,4.5,8.873,4.474,4.474,0,0,0,9,4.436Zm-7.67,0a3.17,3.17,0,0,1,6.34,0,3.17,3.17,0,0,1-6.34,0Z" transform="translate(1516.5 78.205) rotate(180)"/>
    <path id="Path_297" data-name="Path 297" class="cls-2" d="M.75,0A.745.745,0,0,1,1.5.739V5.176a.745.745,0,0,1-.75.739A.745.745,0,0,1,0,5.176V.739A.745.745,0,0,1,.75,0Z" transform="translate(1511.2 59.967)"/>
    <path id="Path_298" data-name="Path 298" class="cls-2" d="M.745-.005a.732.732,0,0,1,.739.739L1.438,7.188a.758.758,0,0,1-.75.75A.732.732,0,0,1-.051,7.2L-.005.745A.758.758,0,0,1,.745-.005Z" transform="translate(1514.248 57.641) rotate(45)"/>
    <path id="Path_299" data-name="Path 299" class="cls-2" d="M.745.005a.758.758,0,0,1,.75.75l.046,6.454A.732.732,0,0,1,.8,7.949a.758.758,0,0,1-.75-.75L.005.745A.732.732,0,0,1,.745.005Z" transform="translate(1515.308 63.218) rotate(135)"/>
  </g>
</svg>
