<svg xmlns="http://www.w3.org/2000/svg" viewBox="0 0 50 50">
  <defs>
    <style>
      .cls-1 {
        fill: #373a8a;
      }
    </style>
  </defs>
  <g id="oil-gauge" transform="translate(-452 -649)">
    <g id="Group_1245" data-name="Group 1245">
      <path id="Path_15" data-name="Path 15" class="cls-1" d="M30.083,19.367a15.1,15.1,0,0,0,.562-4.044,15.323,15.323,0,1,0-15.569,15.31A15.315,15.315,0,1,0,30.083,19.367ZM15.323,29.032a13.71,13.71,0,1,1,13.71-13.71,13.586,13.586,0,0,1-.656,4.106,15.383,15.383,0,0,0-1.794.282A12.093,12.093,0,1,0,6.193,23.243L7.41,22.185a10.481,10.481,0,0,1-2.536-6.056h3.19V14.516H4.88a10.423,10.423,0,0,1,.263-1.653l3.028.984.5-1.534-3.035-.986A10.555,10.555,0,0,1,6.4,9.84l2.573,1.868.949-1.3L7.348,8.534A10.64,10.64,0,0,1,8.532,7.35L10.4,9.926l1.3-.949L9.839,6.4a10.35,10.35,0,0,1,1.487-.769l.986,3.035,1.534-.5-.984-3.028a10.385,10.385,0,0,1,1.653-.263V8.065h1.613V4.88a10.423,10.423,0,0,1,1.653.263L16.8,8.171l1.534.5.986-3.035A10.555,10.555,0,0,1,20.8,6.4L18.935,8.976l1.3.949L22.11,7.348a10.6,10.6,0,0,1,1.184,1.184L20.718,10.4l.949,1.3,2.573-1.868a10.308,10.308,0,0,1,.769,1.487l-3.034.986.5,1.534,3.029-.984a10.43,10.43,0,0,1,.263,1.653H22.581v1.613h3.191a10.467,10.467,0,0,1-1.253,4.2,15.362,15.362,0,0,0-6.951,5.214,10.349,10.349,0,0,1-2.245.268,10.481,10.481,0,0,1-6.864-2.571L7.4,24.453a12.092,12.092,0,0,0,7.921,2.966c.349,0,.706-.034,1.062-.067a15.328,15.328,0,0,0-.773,1.667C15.516,29.024,15.42,29.032,15.323,29.032ZM29.839,48.387a13.71,13.71,0,1,1,13.71-13.71A13.725,13.725,0,0,1,29.839,48.387Zm0,0" transform="translate(452 649)"/>
      <path id="Path_16" data-name="Path 16" class="cls-1" d="M188.1,224A12.111,12.111,0,0,0,176,236.1v.806h6.452V236.1a5.635,5.635,0,0,1,9.417-4.188l-3.816,11.45a2.441,2.441,0,1,0,1.527.518l3.486-10.457a5.611,5.611,0,0,1,.677,2.677v.806h6.452V236.1A12.11,12.11,0,0,0,188.1,224Zm0,22.581a.806.806,0,1,1,.806-.806A.807.807,0,0,1,188.1,246.581Zm7.213-11.29A7.221,7.221,0,0,0,193.7,231.5l.8-2.409-1.529-.51-.562,1.685a7.252,7.252,0,0,0-11.531,5.022h-3.24a10.484,10.484,0,0,1,20.906,0Zm0,0" transform="translate(293.742 447.581)"/>
      <path id="Path_17" data-name="Path 17" class="cls-1" d="M374.451,32H368v4.839h6.452Zm-1.613,3.226h-3.226V33.613h3.226Zm0,0" transform="translate(121.097 620.226)"/>
      <path id="Path_18" data-name="Path 18" class="cls-1" d="M337.033,5.409l-2.517-2.517V2.419A2.423,2.423,0,0,0,332.1,0h-8.065a2.423,2.423,0,0,0-2.419,2.419V13.052A2.416,2.416,0,0,0,320,15.323v2.419h16.129V15.323a2.416,2.416,0,0,0-1.613-2.271V12.1h.806a2.422,2.422,0,0,0,2.419-2.419V7.119A2.4,2.4,0,0,0,337.033,5.409Zm-13-3.8H332.1a.807.807,0,0,1,.806.806V12.9h-9.677V2.419A.807.807,0,0,1,324.032,1.613Zm10.484,14.516h-12.9v-.806a.807.807,0,0,1,.807-.806h11.29a.807.807,0,0,1,.807.806Zm1.613-6.452a.807.807,0,0,1-.807.806h-.806V5.173l1.377,1.377a.81.81,0,0,1,.236.57Zm0,0" transform="translate(164.258 649)"/>
      <path id="Path_19" data-name="Path 19" class="cls-1" d="M130.419,124.9a2.413,2.413,0,0,0,.806-4.69V112h-1.613v8.213a2.413,2.413,0,0,0,.806,4.69Zm0-3.226a.806.806,0,1,1-.806.806A.807.807,0,0,1,130.419,121.677Zm0,0" transform="translate(336.903 548.29)"/>
    </g>
  </g>
</svg>
