<svg id="PayPal-FullColor-Horizontal" xmlns="http://www.w3.org/2000/svg" xmlns:xlink="http://www.w3.org/1999/xlink" viewBox="0 0 64 16">
  <defs>
    <style>
      .cls-1 {
        fill: none;
      }

      .cls-2 {
        fill: #009cde;
      }

      .cls-3 {
        fill: #003087;
      }

      .cls-4 {
        clip-path: url(#clip-path);
      }

      .cls-5 {
        fill: #012169;
      }
    </style>
    <clipPath id="clip-path">
      <path id="Clip_6" data-name="Clip 6" class="cls-1" d="M64,16V0H0V16Z"/>
    </clipPath>
  </defs>
  <path id="Fill_7" data-name="Fill 7" class="cls-2" d="M1.764.3,0,11.545a.358.358,0,0,0,.353.415h1.77a.6.6,0,0,0,.588-.5L4.451.415A.358.358,0,0,0,4.1,0H2.117a.358.358,0,0,0-.353.3" transform="translate(59.544 0.844)"/>
  <path id="Fill_4" data-name="Fill 4" class="cls-2" d="M3.412,8.362a4.014,4.014,0,0,1-1.457-.247,2.786,2.786,0,0,1-1.129-.8A3.9,3.9,0,0,1,.061,4.147a4.709,4.709,0,0,1,6-3.958A1.851,1.851,0,0,1,7.07.865l.143.209L7.3.5a.356.356,0,0,1,.353-.3H9.71a.358.358,0,0,1,.353.415L8.953,7.666a.594.594,0,0,1-.589.5H6.516a.358.358,0,0,1-.353-.415l.092-.572v0a3.473,3.473,0,0,1-.734.587A4.035,4.035,0,0,1,3.412,8.362Zm1.72-6.175a2.3,2.3,0,0,0-2.3,1.984,1.757,1.757,0,0,0,.322,1.448,1.73,1.73,0,0,0,1.379.556A2.292,2.292,0,0,0,6.849,4.207,1.782,1.782,0,0,0,6.5,2.749,1.727,1.727,0,0,0,5.132,2.187Z" transform="translate(49.178 4.893)"/>
  <path id="Fill_1" data-name="Fill 1" class="cls-2" d="M2.557,11.96H.357A.358.358,0,0,1,0,11.545L1.738.505A.594.594,0,0,1,2.327,0H6.615A3.968,3.968,0,0,1,9.74,1.1a3.327,3.327,0,0,1,.547,2.779,6.078,6.078,0,0,1-.545,1.787,3.994,3.994,0,0,1-1,1.279A4.106,4.106,0,0,1,7.3,7.714a6.47,6.47,0,0,1-1.894.257H4.05a.593.593,0,0,0-.588.505l-.492,3.13A.415.415,0,0,1,2.557,11.96ZM4.723,2.389a.356.356,0,0,0-.353.3L3.916,5.578h.647c1.137,0,2.313,0,2.547-1.545a1.441,1.441,0,0,0-.208-1.2c-.377-.443-1.108-.443-1.882-.443Z" transform="translate(42.388 0.844)"/>
  <path id="Fill_5" data-name="Fill 5" class="cls-3" d="M9.567,0H7.5a.6.6,0,0,0-.493.262L4.164,4.472,2.957.427A.6.6,0,0,0,2.387,0H.358A.359.359,0,0,0,.019.475l2.273,6.7L.154,10.2a.359.359,0,0,0,.292.566H2.508A.6.6,0,0,0,3,10.509L9.861.563A.359.359,0,0,0,9.567,0" transform="translate(34.684 5.233)"/>
  <path id="Fill_3" data-name="Fill 3" class="cls-3" d="M3.412,8.362a4.014,4.014,0,0,1-1.458-.247,2.785,2.785,0,0,1-1.128-.8A3.9,3.9,0,0,1,.062,4.147a4.709,4.709,0,0,1,6-3.958A1.85,1.85,0,0,1,7.07.865l.144.209L7.3.5a.356.356,0,0,1,.353-.3H9.71a.358.358,0,0,1,.353.415L8.953,7.666a.594.594,0,0,1-.588.5H6.516a.358.358,0,0,1-.353-.415l.092-.572v0a3.473,3.473,0,0,1-.734.587A4.035,4.035,0,0,1,3.412,8.362Zm1.72-6.175a2.3,2.3,0,0,0-2.3,1.984,1.758,1.758,0,0,0,.322,1.448,1.729,1.729,0,0,0,1.379.556A2.292,2.292,0,0,0,6.849,4.207,1.782,1.782,0,0,0,6.5,2.749,1.727,1.727,0,0,0,5.132,2.187Z" transform="translate(25.866 4.893)"/>
  <path id="Fill_2" data-name="Fill 2" class="cls-3" d="M2.4,11.96H.357A.358.358,0,0,1,0,11.545L1.738.505A.594.594,0,0,1,2.327,0H6.615A3.968,3.968,0,0,1,9.74,1.1a3.327,3.327,0,0,1,.547,2.779,6.077,6.077,0,0,1-.545,1.787,3.994,3.994,0,0,1-1,1.279A4.106,4.106,0,0,1,7.3,7.714a6.47,6.47,0,0,1-1.894.257H4.05a.593.593,0,0,0-.588.505l-.468,2.978A.594.594,0,0,1,2.4,11.96ZM4.723,2.389a.357.357,0,0,0-.353.3L3.916,5.578h.647c1.137,0,2.312,0,2.547-1.545a1.44,1.44,0,0,0-.209-1.2c-.377-.443-1.108-.443-1.882-.443Z" transform="translate(18.125 0.844)"/>
  <g id="Monogram">
    <path id="Clip_6-2" data-name="Clip 6" class="cls-1" d="M64,16V0H0V16Z"/>
    <g id="Monogram-2" data-name="Monogram" class="cls-4">
      <path id="Fill_8" data-name="Fill 8" class="cls-2" d="M11.861,4.065a3.248,3.248,0,0,0-.655-2.859C10.487.362,9.187,0,7.524,0H2.7a.7.7,0,0,0-.682.6L.005,13.731a.423.423,0,0,0,.409.493h2.98l-.206,1.344A.37.37,0,0,0,3.547,16H6.058a.61.61,0,0,0,.6-.525l.025-.132.473-3.091.031-.171a.61.61,0,0,1,.6-.525h.376c2.433,0,4.339-1.019,4.9-3.964a3.456,3.456,0,0,0-.5-2.98,2.4,2.4,0,0,0-.688-.546" transform="translate(-0.009 0)"/>
      <path id="Fill_9" data-name="Fill 9" class="cls-5" d="M11.861,4.065a3.248,3.248,0,0,0-.655-2.859C10.487.362,9.187,0,7.524,0H2.7a.7.7,0,0,0-.682.6L.005,13.731a.423.423,0,0,0,.409.493h2.98l.749-4.89-.023.153a.7.7,0,0,1,.68-.6H6.216c2.781,0,4.959-1.164,5.6-4.531.019-.1.035-.2.049-.291" transform="translate(-0.009 0)"/>
      <path id="Fill_10" data-name="Fill 10" class="cls-3" d="M4.947,4.082a.621.621,0,0,1,.336-.465.589.589,0,0,1,.261-.061H9.327a7.663,7.663,0,0,1,1.248.094q.164.027.319.063t.3.079q.073.022.143.046a3.351,3.351,0,0,1,.523.228,3.248,3.248,0,0,0-.655-2.859C10.487.362,9.187,0,7.524,0H2.7a.7.7,0,0,0-.682.6L.005,13.731a.423.423,0,0,0,.409.493h2.98L4.947,4.082" transform="translate(-0.009 0)"/>
    </g>
  </g>
</svg>
