<svg xmlns="http://www.w3.org/2000/svg" xmlns:xlink="http://www.w3.org/1999/xlink" viewBox="0 0 16 16">
  <defs>
    <style>
      .cls-1 {
        fill: #fb3b71;
      }

      .cls-2 {
        fill: #fff;
        opacity: 0;
      }

      .cls-3 {
        clip-path: url(#clip-path);
      }

      .cls-4 {
        clip-path: url(#clip-path-2);
      }
    </style>
    <clipPath id="clip-path">
      <path id="icon_social_person_24px" data-name="icon/social/person_24px" class="cls-1" d="M10.667,10.667H0V9.334c0-.546.347-1.337,2-2a9.9,9.9,0,0,1,3.334-.668,9.9,9.9,0,0,1,3.334.668c1.652.662,2,1.452,2,2v1.333ZM5.333,8c-1.773,0-3.847.856-4,1.334h8C9.2,8.856,7.128,8,5.333,8Zm0-2.666A2.667,2.667,0,1,1,8,2.666,2.67,2.67,0,0,1,5.333,5.333Zm0-4A1.334,1.334,0,1,0,6.667,2.666,1.335,1.335,0,0,0,5.333,1.333Z" transform="translate(0 0)"/>
    </clipPath>
    <clipPath id="clip-path-2">
      <rect id="Rectangle" class="cls-1" width="16" height="16"/>
    </clipPath>
  </defs>
  <g id="private" transform="translate(16503 21988)">
    <path id="Path_835" data-name="Path 835" class="cls-2" d="M0,0H16V16H0Z" transform="translate(-16503 -21988)"/>
    <g id="Group_67" data-name="Group 67" class="cls-3" transform="translate(-16500.334 -21985.334)">
      <g id="_Color" data-name="↳ Color" transform="translate(-2.667 -2.667)">
        <rect id="_Color_background" data-name="↳ Color background" class="cls-1" width="16" height="16"/>
        <rect id="Rectangle-2" data-name="Rectangle" class="cls-1" width="16" height="16"/>
      </g>
    </g>
  </g>
</svg>
