<svg xmlns="http://www.w3.org/2000/svg" viewBox="0 0 50 50">
  <defs>
    <style>
      .cls-1 {
        opacity: 0.896;
      }

      .cls-2 {
        fill: #4b407b;
      }
    </style>
  </defs>
  <g id="puzzle" transform="translate(16485 22498)">
    <g id="puzzle-2" data-name="puzzle" class="cls-1" transform="translate(-16485 -22498)">
      <g id="Group_6" data-name="Group 6">
        <path id="Path_37" data-name="Path 37" class="cls-2" d="M45.605,0H25a1.465,1.465,0,0,0-1.465,1.465V7.607a5.859,5.859,0,1,0,0,11.348v4.58H16.554a1.465,1.465,0,0,0-1.091,2.442,2.93,2.93,0,1,1-4.364,0,1.465,1.465,0,0,0-1.091-2.442H1.465A1.465,1.465,0,0,0,0,25V45.605A4.4,4.4,0,0,0,4.395,50H45.605A4.4,4.4,0,0,0,50,45.605V4.395A4.4,4.4,0,0,0,45.605,0ZM23.535,39.985h0v0h0V47.07H4.395A1.467,1.467,0,0,1,2.93,45.605V26.455H7.608a5.93,5.93,0,0,0-.186,1.475,5.859,5.859,0,1,0,11.533-1.465h4.58v6.981h0a1.466,1.466,0,0,0,2.442,1.091,2.93,2.93,0,1,1,0,4.367A1.466,1.466,0,0,0,23.535,39.985ZM47.07,45.605a1.467,1.467,0,0,1-1.465,1.465H26.465V42.392a5.859,5.859,0,1,0,0-11.347V26.465h6.981a1.465,1.465,0,0,0,1.091-2.442,2.93,2.93,0,1,1,4.364,0,1.465,1.465,0,0,0,1.091,2.442H47.07Zm0-22.07H42.392a5.859,5.859,0,1,0-11.347,0h-4.58V16.557a1.466,1.466,0,0,0-2.442-1.092,2.93,2.93,0,1,1,0-4.368,1.466,1.466,0,0,0,2.442-1.092V2.93H45.605A1.467,1.467,0,0,1,47.07,4.395Z" transform="translate(0)"/>
      </g>
    </g>
  </g>
</svg>
