<svg xmlns="http://www.w3.org/2000/svg" viewBox="0 0 36 36">
  <defs>
    <style>
      .cls-1 {
        fill: #121212;
      }
    </style>
  </defs>
  <g id="shopping-cart-empty-side-view" transform="translate(-1458 -41)">
    <path id="Path_240" data-name="Path 240" class="cls-1" d="M35.792,19.633a1.154,1.154,0,0,0-.9-.5l-22.331-.966a1.159,1.159,0,0,0-.1,2.316l20.819.9L29.19,34.205H10.973L7.682,16.223a1.158,1.158,0,0,0-.714-.869l-5.39-4.125a1.159,1.159,0,0,0-.845,2.158l4.793,3.889,3.349,18.3a1.156,1.156,0,0,0,1.136.95h.556L9.3,40.06a.966.966,0,0,0,.906,1.293h.89a3.465,3.465,0,1,0,5.151,0H23.8a3.465,3.465,0,1,0,5.151,0h1.082a.966.966,0,0,0,0-1.932H11.573l1.039-2.9h17.42a1.155,1.155,0,0,0,1.1-.805l4.813-15.068A1.16,1.16,0,0,0,35.792,19.633ZM13.669,45.217a1.545,1.545,0,1,1,1.54-1.545A1.544,1.544,0,0,1,13.669,45.217Zm12.706,0a1.545,1.545,0,1,1,1.54-1.545A1.544,1.544,0,0,1,26.374,45.217Z" transform="translate(1458 29.852)"/>
  </g>
</svg>
