<svg xmlns="http://www.w3.org/2000/svg" viewBox="0 0 16 16">
  <defs>
    <style>
      .cls-1 {
        fill: #fff;
        opacity: 0;
      }

      .cls-2 {
        fill: #fb3b71;
        stroke: #fb3b71;
        stroke-width: 0.3px;
      }
    </style>
  </defs>
  <g id="startup" transform="translate(-454 -116)">
    <path id="Path_836" data-name="Path 836" class="cls-1" d="M0,0H16V16H0Z" transform="translate(454 116)"/>
    <g id="startup-2" data-name="startup" transform="translate(455.333 117.333)">
      <g id="Group_76" data-name="Group 76" transform="translate(6.552 6.261)">
        <g id="Group_75" data-name="Group 75">
          <path id="Path_69" data-name="Path 69" class="cls-2" d="M252.032,240.495a.26.26,0,1,0,0,.368A.26.26,0,0,0,252.032,240.495Z" transform="translate(-251.587 -240.419)"/>
        </g>
      </g>
      <g id="Group_78" data-name="Group 78" transform="translate(8.089 2.641)">
        <g id="Group_77" data-name="Group 77">
          <path id="Path_70" data-name="Path 70" class="cls-2" d="M312.825,101.8a1.3,1.3,0,1,0,0,1.841A1.3,1.3,0,0,0,312.825,101.8Zm-.368,1.473a.781.781,0,1,1,0-1.1A.782.782,0,0,1,312.457,103.27Z" transform="translate(-310.603 -101.415)"/>
        </g>
      </g>
      <g id="Group_80" data-name="Group 80" transform="translate(2.5 0)">
        <g id="Group_79" data-name="Group 79" transform="translate(0 0)">
          <path id="Path_71" data-name="Path 71" class="cls-2" d="M106.775.076A.26.26,0,0,0,106.581,0a11.569,11.569,0,0,0-3.127.647,8.719,8.719,0,0,0-3.308,2.006c-.193.193-.38.4-.56.609a1.909,1.909,0,0,0-1.962-.113,3.688,3.688,0,0,0-1.606,3,.26.26,0,0,0,.445.184,1.658,1.658,0,0,1,1.379-.463l.091.091A9.159,9.159,0,0,0,97.5,7.23a.737.737,0,0,0,.032.452,2.466,2.466,0,0,0-.7.5,4.653,4.653,0,0,0-.812,2.373.26.26,0,0,0,.26.281H96.3a4.652,4.652,0,0,0,2.373-.812,2.466,2.466,0,0,0,.5-.7.735.735,0,0,0,.453.031,9.161,9.161,0,0,0,1.265-.43l.091.091a1.658,1.658,0,0,1-.463,1.379.26.26,0,0,0,.184.445,3.688,3.688,0,0,0,3-1.606,1.909,1.909,0,0,0-.113-1.962c.212-.179.417-.367.609-.56A8.719,8.719,0,0,0,106.2,3.4,11.569,11.569,0,0,0,106.851.27.261.261,0,0,0,106.775.076ZM96.6,5.593a3.009,3.009,0,0,1,1.269-1.983,1.388,1.388,0,0,1,1.387.065,10.529,10.529,0,0,0-1.094,1.784.275.275,0,0,0-.138-.081A2.226,2.226,0,0,0,96.6,5.593Zm1.7,4.059a3.545,3.545,0,0,1-1.729.624A3.546,3.546,0,0,1,97.2,8.547a1.877,1.877,0,0,1,.667-.438l.876.876A1.876,1.876,0,0,1,98.3,9.652Zm1.187-.808a.244.244,0,0,1-.228-.074l-.51-.51-.673-.673a.244.244,0,0,1-.074-.228,8.457,8.457,0,0,1,.325-.995l2.154,2.154A8.451,8.451,0,0,1,99.491,8.844Zm3.75.138a3.009,3.009,0,0,1-1.983,1.269,2.217,2.217,0,0,0,.213-1.43.272.272,0,0,0-.079-.132,10.533,10.533,0,0,0,1.783-1.094A1.388,1.388,0,0,1,103.241,8.981Zm.587-2.644a9.452,9.452,0,0,1-.751.674A10.005,10.005,0,0,1,101,8.3L98.553,5.849A10,10,0,0,1,99.84,3.773a9.45,9.45,0,0,1,.674-.751,8.12,8.12,0,0,1,2.96-1.827l2.182,2.182A8.12,8.12,0,0,1,103.828,6.337Zm2.015-3.509-1.82-1.82a11.708,11.708,0,0,1,2.285-.465A11.711,11.711,0,0,1,105.843,2.828Z" transform="translate(-96.018 0)"/>
        </g>
      </g>
      <g id="Group_82" data-name="Group 82" transform="translate(5.079 10.68)">
        <g id="Group_81" data-name="Group 81">
          <path id="Path_72" data-name="Path 72" class="cls-2" d="M196.2,410.2a.26.26,0,0,0-.368,0l-.736.737a.26.26,0,1,0,.368.368l.736-.737A.26.26,0,0,0,196.2,410.2Z" transform="translate(-195.021 -410.121)"/>
        </g>
      </g>
      <g id="Group_84" data-name="Group 84" transform="translate(1.396 6.997)">
        <g id="Group_83" data-name="Group 83">
          <path id="Path_73" data-name="Path 73" class="cls-2" d="M54.773,268.778a.26.26,0,0,0-.368,0l-.737.736a.26.26,0,1,0,.368.368l.737-.736A.26.26,0,0,0,54.773,268.778Z" transform="translate(-53.592 -268.701)"/>
        </g>
      </g>
      <g id="Group_86" data-name="Group 86" transform="translate(2.21 11.049)">
        <g id="Group_85" data-name="Group 85">
          <path id="Path_74" data-name="Path 74" class="cls-2" d="M87.06,424.347a.26.26,0,0,0-.368,0l-1.764,1.764a.26.26,0,0,0,.368.368l1.764-1.764A.26.26,0,0,0,87.06,424.347Z" transform="translate(-84.851 -424.271)"/>
        </g>
      </g>
      <g id="Group_88" data-name="Group 88" transform="translate(0.126 11.049)">
        <g id="Group_87" data-name="Group 87">
          <path id="Path_75" data-name="Path 75" class="cls-2" d="M7.06,424.347a.26.26,0,0,0-.368,0l-1.764,1.764a.26.26,0,0,0,.368.368l1.764-1.764A.26.26,0,0,0,7.06,424.347Z" transform="translate(-4.851 -424.271)"/>
        </g>
      </g>
      <g id="Group_90" data-name="Group 90" transform="translate(0 8.839)">
        <g id="Group_89" data-name="Group 89">
          <path id="Path_76" data-name="Path 76" class="cls-2" d="M2.21,339.486a.26.26,0,0,0-.368,0L.078,341.25a.26.26,0,1,0,.368.368l1.764-1.764A.261.261,0,0,0,2.21,339.486Z" transform="translate(-0.001 -339.41)"/>
        </g>
      </g>
      <g id="Group_92" data-name="Group 92" transform="translate(7.288 5.156)">
        <g id="Group_91" data-name="Group 91">
          <path id="Path_77" data-name="Path 77" class="cls-2" d="M280.684,198.067a.26.26,0,0,0-.368,0l-.368.368a.26.26,0,1,0,.368.368l.368-.368A.26.26,0,0,0,280.684,198.067Z" transform="translate(-279.871 -197.99)"/>
        </g>
      </g>
    </g>
  </g>
</svg>
