<svg xmlns="http://www.w3.org/2000/svg" viewBox="0 0 15.998 16">
  <defs>
    <style>
      .cls-1 {
        fill: #57a4ff;
      }
    </style>
  </defs>
  <path id="Subtraction_7" data-name="Subtraction 7" class="cls-1" d="M9310.988-22380a.493.493,0,0,1-.388-.187l-1.234-1.521-1.937-.309a.5.5,0,0,1-.414-.414l-.308-1.937-1.523-1.232a.5.5,0,0,1-.151-.568l.7-1.83-.7-1.83a.494.494,0,0,1,.151-.566l1.523-1.234.308-1.936a.5.5,0,0,1,.414-.416l1.937-.309,1.234-1.523a.5.5,0,0,1,.386-.186.482.482,0,0,1,.18.035l1.831.7,1.829-.7a.489.489,0,0,1,.182-.035.494.494,0,0,1,.387.186l1.234,1.521,1.936.311a.5.5,0,0,1,.416.414l.307,1.936,1.523,1.236a.494.494,0,0,1,.152.566l-.7,1.83.7,1.83a.5.5,0,0,1-.152.568l-1.523,1.232-.309,1.938a.5.5,0,0,1-.414.414l-1.937.309-1.232,1.521a.491.491,0,0,1-.39.186.527.527,0,0,1-.178-.031l-1.832-.7-1.829.7A.51.51,0,0,1,9310.988-22380Zm-1.389-5.693a.6.6,0,0,0-.6.6v1.09h5.2v-1.09a.6.6,0,0,0-.6-.6Zm3.121-3.045h0l3.649,3.65a.363.363,0,0,0,.26.107.374.374,0,0,0,.261-.107.373.373,0,0,0,.108-.262.365.365,0,0,0-.108-.26l-3.649-3.65.7-.7a.3.3,0,0,0,.2.074.294.294,0,0,0,.209-.086.3.3,0,0,0,0-.42l-1.52-1.518a.289.289,0,0,0-.21-.09.283.283,0,0,0-.208.09.289.289,0,0,0-.088.211.286.286,0,0,0,.088.205l-.014-.01-1.93,1.926.014.016a.3.3,0,0,0-.21-.088.285.285,0,0,0-.207.088.287.287,0,0,0-.087.209.29.29,0,0,0,.087.207l1.519,1.521a.3.3,0,0,0,.209.086.294.294,0,0,0,.209-.086.3.3,0,0,0,.013-.406l.7-.705Z" transform="translate(-9304.999 22396.002)"/>
</svg>
