<svg xmlns="http://www.w3.org/2000/svg" viewBox="0 0 16 16">
  <defs>
    <style>
      .cls-1 {
        fill: #57a4ff;
      }
    </style>
  </defs>
  <path id="Subtraction_10" data-name="Subtraction 10" class="cls-1" d="M9310.989-22380a.493.493,0,0,1-.388-.187l-1.234-1.521-1.937-.309a.5.5,0,0,1-.414-.414l-.308-1.937-1.523-1.232a.5.5,0,0,1-.151-.568l.7-1.83-.7-1.83a.494.494,0,0,1,.151-.566l1.523-1.234.308-1.936a.5.5,0,0,1,.414-.416l1.938-.309,1.234-1.523a.492.492,0,0,1,.385-.186.484.484,0,0,1,.181.035l1.83.7,1.831-.7a.482.482,0,0,1,.18-.035.5.5,0,0,1,.388.186l1.234,1.521,1.937.311a.5.5,0,0,1,.415.414l.308,1.936,1.523,1.236a.492.492,0,0,1,.151.566l-.7,1.83.7,1.83a.5.5,0,0,1-.151.568l-1.523,1.232-.31,1.938a.5.5,0,0,1-.414.414l-1.937.309-1.232,1.521a.493.493,0,0,1-.39.186.531.531,0,0,1-.178-.031l-1.833-.7-1.828.7A.514.514,0,0,1,9310.989-22380Zm1.75-5.85h0v1a.845.845,0,0,0,.845.844h1.975a.845.845,0,0,0,.845-.844v-1l.177.16.42-.463-2.429-2.221-2.429,2.221.422.463.174-.16Zm-.544-6.15a3.2,3.2,0,0,0-3.2,3.205v.088a5.066,5.066,0,0,0,1.52,3.092,12.9,12.9,0,0,0,1.479,1.453l.2.156v-.811c-.6-.529-2.572-2.371-2.572-3.891v-.088a2.578,2.578,0,0,1,2.572-2.578,2.556,2.556,0,0,1,1.73.672,2.572,2.572,0,0,1,.827,1.65l.626.572a2.21,2.21,0,0,0,.012-.229v-.088A3.2,3.2,0,0,0,9312.2-22392Zm0,1.877a1.328,1.328,0,0,0-1.326,1.328,1.327,1.327,0,0,0,1.326,1.324,1.326,1.326,0,0,0,1.325-1.324A1.327,1.327,0,0,0,9312.2-22390.125Zm3.363,5.5h-1.975a.22.22,0,0,1-.221-.221v-1.572l1.208-1.105,1.208,1.105v1.572A.22.22,0,0,1,9315.559-22384.629Zm-1.446-1.576h0v.936h.935v-.936Z" transform="translate(-9304.999 22396.002)"/>
</svg>
