<svg xmlns="http://www.w3.org/2000/svg" viewBox="0 0 15.999 16">
  <defs>
    <style>
      .cls-1 {
        fill: #57a4ff;
      }
    </style>
  </defs>
  <path id="Subtraction_9" data-name="Subtraction 9" class="cls-1" d="M9310.99-22380a.5.5,0,0,1-.388-.187l-1.235-1.523-1.937-.309a.5.5,0,0,1-.414-.414l-.308-1.937-1.522-1.232a.5.5,0,0,1-.152-.568l.7-1.83-.7-1.828a.5.5,0,0,1,.152-.568l1.522-1.234.308-1.936a.5.5,0,0,1,.414-.416l1.937-.307,1.235-1.525a.5.5,0,0,1,.386-.184.5.5,0,0,1,.18.033l1.831.7,1.831-.7a.5.5,0,0,1,.18-.033.493.493,0,0,1,.388.184l1.234,1.521,1.935.311a.5.5,0,0,1,.417.414l.308,1.938,1.522,1.234a.493.493,0,0,1,.151.568l-.7,1.828.7,1.83a.5.5,0,0,1-.151.568l-1.523,1.232-.309,1.938a.5.5,0,0,1-.414.414l-1.937.309-1.233,1.523a.5.5,0,0,1-.389.184.507.507,0,0,1-.179-.031l-1.832-.7-1.829.7A.522.522,0,0,1,9310.99-22380Zm-.689-12a.631.631,0,0,0-.633.629v6.74a.632.632,0,0,0,.633.629h4.6a.631.631,0,0,0,.631-.629v-6.74a.63.63,0,0,0-.631-.629Zm5.444,1.137v6.232c0,.021,0,.045,0,.068v.023h.043a.422.422,0,0,0,.4-.3l1.463-5.031a.414.414,0,0,0-.033-.32.428.428,0,0,0-.255-.2Zm-1.684,5.625a.628.628,0,0,1-.427-.172.087.087,0,0,1-.033-.074.111.111,0,0,1,.03-.074l.008-.006a.11.11,0,0,1,.073-.033.124.124,0,0,1,.075.033.4.4,0,0,0,.273.107c.11,0,.241-.035.241-.137s-.057-.131-.247-.187l-.006,0c-.167-.051-.394-.121-.394-.387,0-.2.178-.336.44-.336a.681.681,0,0,1,.328.088.1.1,0,0,1,.047.064.108.108,0,0,1-.013.082l0,0a.106.106,0,0,1-.09.051.108.108,0,0,1-.055-.014.423.423,0,0,0-.214-.053c-.106,0-.222.029-.222.113s.062.125.246.18h0l0,0c.168.049.4.119.4.4C9314.523-22385.381,9314.338-22385.238,9314.062-22385.238Zm-.918,0a.641.641,0,0,1-.43-.172.088.088,0,0,1-.031-.074.107.107,0,0,1,.031-.074l.006-.006a.119.119,0,0,1,.075-.033.117.117,0,0,1,.074.033.409.409,0,0,0,.274.107c.11,0,.241-.035.241-.137s-.059-.133-.249-.187l-.007,0c-.165-.051-.393-.121-.393-.387,0-.2.177-.336.44-.336a.663.663,0,0,1,.327.088.1.1,0,0,1,.05.064.121.121,0,0,1-.013.082l0,0a.112.112,0,0,1-.093.051.12.12,0,0,1-.052-.014.433.433,0,0,0-.216-.053c-.106,0-.22.029-.22.113s.062.125.244.18.406.119.4.4C9313.605-22385.381,9313.42-22385.238,9313.144-22385.238Zm-.558,0h-.013a.1.1,0,0,1-.095-.059l-.124-.27h-.536l-.121.27a.105.105,0,0,1-.1.059h-.016a.106.106,0,0,1-.088-.047.11.11,0,0,1-.008-.1l.488-1.061a.1.1,0,0,1,.095-.062h.021a.105.105,0,0,1,.1.063l.493,1.061a.1.1,0,0,1-.008.1A.1.1,0,0,1,9312.586-22385.238Zm-.5-.91h0l-.165.363h.333l-.168-.363Zm-1.289.91h-.012a.1.1,0,0,1-.1-.1v-1.064a.107.107,0,0,1,.1-.1h.358a.446.446,0,0,1,.508.447.447.447,0,0,1-.508.451h-.242v.27A.1.1,0,0,1,9310.8-22385.238Zm.1-1.049h0v.459h.242c.189,0,.286-.078.286-.232s-.1-.227-.286-.227Zm1.7-.93a1.68,1.68,0,0,1-1.679-1.678,1.679,1.679,0,0,1,1.679-1.676,1.679,1.679,0,0,1,1.679,1.676,1.672,1.672,0,0,1-.466,1.162l-.868-.869.313-.311a.128.128,0,0,0,.088.031.124.124,0,0,0,.092-.039.132.132,0,0,0,0-.186l-.675-.674a.129.129,0,0,0-.092-.039.133.133,0,0,0-.094.039.137.137,0,0,0-.006.182l-.855.854a.128.128,0,0,0-.087-.029.13.13,0,0,0-.094.035.139.139,0,0,0-.039.094.124.124,0,0,0,.039.092l.675.674a.121.121,0,0,0,.094.039.124.124,0,0,0,.092-.039.132.132,0,0,0,0-.18l.313-.312.849.85A1.652,1.652,0,0,1,9312.6-22387.217Z" transform="translate(-9305.001 22396)"/>
</svg>
