<svg xmlns="http://www.w3.org/2000/svg" viewBox="0 0 22 25">
  <defs>
    <style>
      .cls-1 {
        fill: #fff;
      }
    </style>
  </defs>
  <g id="transgender-active" transform="translate(-1335 -61)">
    <path id="Path_162" data-name="Path 162" class="cls-1" d="M172.256,138.867a3.9,3.9,0,1,0,2.76,1.142A3.88,3.88,0,0,0,172.256,138.867Zm1.744,5.64a2.461,2.461,0,1,1,.722-1.742A2.451,2.451,0,0,1,174,144.507Z" transform="translate(1173.774 -70.747)"/>
    <path id="Path_163" data-name="Path 163" class="cls-1" d="M50.252,0H46.466a.718.718,0,1,0,0,1.436h2.566L44.959,5.5a7.1,7.1,0,0,0-8.922.027L35.11,4.6l1.46-1.459A.718.718,0,1,0,35.554,2.13l-1.46,1.459L31.938,1.436H34.5A.718.718,0,1,0,34.5,0H30.718a1.233,1.233,0,0,0-1.233,1.231V5.014a.719.719,0,0,0,1.437,0V2.451L33.077,4.6l-1.46,1.459a.718.718,0,0,0,1.016,1.015l1.46-1.459.928.927A7.08,7.08,0,0,0,39.8,18.062v3.11H37.979a.718.718,0,1,0,0,1.436H39.8v1.675a.719.719,0,0,0,1.437,0V22.607h1.817a.718.718,0,1,0,0-1.436H41.234v-3.11a7.078,7.078,0,0,0,4.748-11.55l4.066-4.062V5.014a.719.719,0,0,0,1.437,0V1.231A1.233,1.233,0,0,0,50.252,0ZM44.511,15.009a5.64,5.64,0,1,1,1.655-3.991A5.616,5.616,0,0,1,44.511,15.009Z" transform="translate(1305.515 61)"/>
  </g>
</svg>
