<svg id="Visa" xmlns="http://www.w3.org/2000/svg" viewBox="0 0 53 16">
  <defs>
    <style>
      .cls-1 {
        fill: #16216a;
      }
    </style>
  </defs>
  <path id="Fill_1" data-name="Fill 1" class="cls-1" d="M53,16H49.1c0-.012-.384-1.818-.51-2.38l-2.913,0H45.64l-2.419,0c-.163.423-.876,2.368-.883,2.387H37.93L44.162,1.442A2.03,2.03,0,0,1,45.05.4,2.683,2.683,0,0,1,46.361.125H49.6L53,16h0ZM46.1,5.925c-.013.035-1.324,3.527-1.67,4.44h3.483c-.146-.691-.775-3.658-.964-4.55l-.008-.038-.285-1.37c-.117.332-.283.777-.4,1.1h0c-.089.239-.153.411-.152.415h0Zm-18.192,9.82a9.826,9.826,0,0,1-2.033-.564l.6-3.443.55.243a9.079,9.079,0,0,0,4.017.807,3.92,3.92,0,0,0,1.735-.363,1.3,1.3,0,0,0,.823-1.137c.006-.672-.553-1.153-2.215-1.907-1.617-.734-3.764-1.967-3.741-4.179C27.667,2.212,30.634.125,34.856.125a11.853,11.853,0,0,1,2.217.207,10.148,10.148,0,0,1,1.61.441L38.1,4.1l-.384-.178a8.342,8.342,0,0,0-1.315-.408,8.027,8.027,0,0,0-1.737-.183h-.142a3.544,3.544,0,0,0-1.849.422,1.4,1.4,0,0,0-.449.425.872.872,0,0,0-.147.476c-.009.722.905,1.194,2.4,1.906,2.46,1.1,3.6,2.426,3.583,4.178a4.6,4.6,0,0,1-2.046,3.826A9.323,9.323,0,0,1,30.629,16,16.483,16.483,0,0,1,27.906,15.744ZM19.092,16,21.7.125h4.175L23.259,16ZM4.779,2.112A18.553,18.553,0,0,0,0,.318L.052,0H7.06C8,.035,8.766.321,9.028,1.289l1.521,7.026q-.132-.323-.285-.64a8.062,8.062,0,0,1,.426,1.089l.447,2.2L15.321.125h4.524L13.119,15.993,8.6,16Z"/>
</svg>
