<svg xmlns="http://www.w3.org/2000/svg" viewBox="0 0 50.5 50.5">
  <defs>
    <style>
      .cls-1 {
        fill: #46aa38;
        stroke: #46aa38;
        stroke-width: 0.5px;
      }
    </style>
  </defs>
  <g id="volleyball" transform="translate(-559.75 -605.75)">
    <path id="Path_36" data-name="Path 36" class="cls-1" d="M25,0A25,25,0,1,0,50,25,25,25,0,0,0,25,0ZM23.527,1.418a29.505,29.505,0,0,1,4.724,2.508A32.881,32.881,0,0,0,3.219,25.41,27.239,27.239,0,0,1,1.56,22.032,23.668,23.668,0,0,1,23.527,1.418ZM8.171,32.446a48.7,48.7,0,0,1-4.012-5.471c.661-2.38,5.891-18.694,25.72-21.963a47.43,47.43,0,0,1,4.2,3.324C29.1,9.652,11.518,15.452,8.171,32.446Zm27.116-23a54.413,54.413,0,0,1,4.2,4.455,42.2,42.2,0,0,0-11.253,4.714c-7.92,4.783-12.725,11.69-13.98,20.016a58.481,58.481,0,0,1-4.933-4.856C12.178,15.425,32.3,10.131,35.286,9.447ZM25,48.632A23.66,23.66,0,0,1,1.368,25v-.077C3.807,29.705,10.6,40.151,26.331,48.6,25.912,48.618,25.456,48.632,25,48.632Zm3.789-.305a69.911,69.911,0,0,1-13.3-8.641,24.946,24.946,0,0,1,4.231-11.4c2.252,2.69,10.387,12.074,17.851,16.688A23.48,23.48,0,0,1,28.789,48.327ZM38.82,44.15c-7.6-4.473-16.414-14.75-18.266-16.98A29.935,29.935,0,0,1,27.736,20.6C29.915,22.62,40.1,32.163,44.3,38.642A23.836,23.836,0,0,1,38.82,44.15ZM45.1,37.4c-4.336-6.42-13.555-15.138-16.182-17.559a41.135,41.135,0,0,1,11.545-4.76,64.332,64.332,0,0,1,7.975,12.94A23.469,23.469,0,0,1,45.1,37.4Zm3.529-12.1C41.182,10.651,31.575,4.026,26.8,1.441A23.659,23.659,0,0,1,48.632,25C48.632,25.1,48.627,25.2,48.627,25.3Zm0,0" transform="translate(560 606)"/>
  </g>
</svg>
