<svg xmlns="http://www.w3.org/2000/svg" viewBox="0 0 24 24.2">
  <defs>
    <style>
      .cls-1 {
        fill: #fff;
        opacity: 0;
      }

      .cls-2 {
        fill: #b246ce;
        stroke: #b246ce;
        stroke-width: 0.2px;
      }
    </style>
  </defs>
  <g id="electronics" transform="translate(-104 -1215.9)">
    <path id="Path_830" data-name="Path 830" class="cls-1" d="M0,0H24V24H0Z" transform="translate(104 1216)"/>
    <g id="lamp" transform="translate(106.5 1216)">
      <path id="Union_1" data-name="Union 1" class="cls-2" d="M9.118,24A2.306,2.306,0,0,1,6.84,21.672V18.314a4.821,4.821,0,0,0-1.621-3.587,6.744,6.744,0,0,1-.282-9.753,6.4,6.4,0,0,1,9.2.06,6.757,6.757,0,0,1-.382,9.72,4.788,4.788,0,0,0-1.59,3.6v3.315A2.306,2.306,0,0,1,9.882,24Zm0-.937h.764a1.365,1.365,0,0,0,1.286-.938H7.832A1.365,1.365,0,0,0,9.118,23.063Zm-1.36-1.875h3.485V20.5H7.757Zm0-1.627h3.485v-.689H7.757Zm1.5-9.583a1.794,1.794,0,0,1,1.772,1.811v.726a1.518,1.518,0,0,1-.617,1.226v1.541s0,0,0,.006a1.417,1.417,0,0,1,.465,1.052v1.594h.382a5.707,5.707,0,0,1,1.894-3.89,5.771,5.771,0,0,0,1.943-4.333,5.681,5.681,0,0,0-5.52-5.718A5.489,5.489,0,0,0,5.581,5.641a5.792,5.792,0,0,0,.242,8.379,5.776,5.776,0,0,1,1.922,3.913h.38V16.34a1.393,1.393,0,0,1,1.37-1.406v-.911h-.3a1.246,1.246,0,0,1,0-2.492,1.208,1.208,0,0,1,.921.43v-.173a.865.865,0,0,0-.855-.874H8.43a.469.469,0,0,1,0-.938ZM9.041,16.34v1.594h.917V16.34a.459.459,0,1,0-.917,0Zm-.153-3.563a.305.305,0,0,0,.3.308h.3V12.78a.3.3,0,1,0-.606,0Zm6.68,3.8-.876-.9a.476.476,0,0,1,0-.663.452.452,0,0,1,.649,0l.875.895a.476.476,0,0,1,0,.663.451.451,0,0,1-.648,0Zm-12.786,0a.476.476,0,0,1,0-.663l.875-.895a.451.451,0,0,1,.648,0,.476.476,0,0,1,0,.663l-.875.9a.451.451,0,0,1-.648,0ZM17.3,10.18a.469.469,0,0,1,0-.938h1.238a.469.469,0,0,1,0,.938Zm-4.41-.469A3.457,3.457,0,0,0,11.164,6.7a.474.474,0,0,1-.178-.638.453.453,0,0,1,.624-.182,4.4,4.4,0,0,1,2.2,3.826.459.459,0,1,1-.917,0ZM.459,10.18a.469.469,0,0,1,0-.938H1.7a.469.469,0,0,1,0,.938ZM9.586,6.273H9.579a.469.469,0,0,1,.006-.937h.007a.469.469,0,0,1,0,.937ZM14.694,4.4a.476.476,0,0,1,0-.663l.875-.895a.451.451,0,0,1,.648,0,.476.476,0,0,1,0,.663l-.875.9a.451.451,0,0,1-.648,0ZM3.658,4.4l-.876-.895a.476.476,0,0,1,0-.663.452.452,0,0,1,.649,0l.875.9a.476.476,0,0,1,0,.663.451.451,0,0,1-.648,0ZM9.041,1.734V.469a.459.459,0,1,1,.917,0V1.734a.459.459,0,1,1-.917,0Z" transform="translate(0 0)"/>
    </g>
  </g>
</svg>
