<svg xmlns="http://www.w3.org/2000/svg" viewBox="0 0 100 100">
  <defs>
    <style>
      .cls-1 {
        fill: #fe5a76;
      }
    </style>
  </defs>
  <g id="fashion-100x100" transform="translate(-336 -618)">
    <path id="Union_2" data-name="Union 2" class="cls-1" d="M48.52,99.343.7,46.137s-.007-.01-.011-.014A1.936,1.936,0,0,1,.5,43.352L17.753,24.081a1.991,1.991,0,0,1,1.483-.659H80.764a1.99,1.99,0,0,1,1.483.659L99.5,43.352a1.936,1.936,0,0,1-.189,2.771l-.011.014L51.481,99.343a2,2,0,0,1-2.961,0Zm-2.573-8.748-16.157-44H6.4Zm18.3-32.741a1.946,1.946,0,0,1,1.171,2.509L54.126,90.513,93.6,46.6H34L50.018,90.215,61.7,59.009a1.977,1.977,0,0,1,1.856-1.277A2,2,0,0,1,64.244,57.854Zm8.012-15.161H93.631L81.071,28.667Zm-36.515,0H64.26L50,28.535Zm-29.371,0H27.745L18.929,28.667Zm62.09-1.372,8.8-13.993H54.365Zm-36.919,0,14.1-13.993H22.745ZM64.172,52.414a1.953,1.953,0,1,1,1.953,1.954A1.953,1.953,0,0,1,64.172,52.414ZM58.1,17.6a1.953,1.953,0,0,1,0-2.762L65.216,7.72a1.953,1.953,0,0,1,2.762,2.762L60.863,17.6a1.953,1.953,0,0,1-2.762,0Zm-19.351,0-7.115-7.114A1.953,1.953,0,0,1,34.4,7.72l7.115,7.114A1.953,1.953,0,1,1,38.75,17.6Zm9.3-5.582V1.953a1.953,1.953,0,0,1,3.907,0V12.014a1.953,1.953,0,0,1-3.907,0Z" transform="translate(335.999 618)"/>
  </g>
</svg>
