<svg xmlns="http://www.w3.org/2000/svg" xmlns:xlink="http://www.w3.org/1999/xlink" viewBox="0 0 25 25">
  <defs>
    <style>
      .cls-1 {
        fill: #637381;
      }

      .cls-2 {
        fill: rgba(0,0,0,0);
      }

      .cls-3 {
        fill: #121212;
      }

      .cls-4 {
        clip-path: url(#clip-path);
      }
    </style>
    <clipPath id="clip-path">
      <path id="icon_action_search_24px" data-name="icon/action/search_24px" class="cls-1" d="M14.015,15.32h0l-4.379-4.37v-.692L9.4,10.012a5.7,5.7,0,1,1,.613-.613l.245.236h.692l4.37,4.38-1.3,1.3ZM5.693,1.752A3.942,3.942,0,1,0,9.635,5.693,3.946,3.946,0,0,0,5.693,1.752Z" transform="translate(0 0)"/>
    </clipPath>
  </defs>
  <g id="search" transform="translate(-615 -46)">
    <rect id="icon_navigation_menu_24px_copy_4_background" data-name="icon/navigation/menu_24px copy 4 background" class="cls-2" width="25" height="25" transform="translate(615 46)"/>
    <path id="icon_action_search_24px-2" data-name="icon/action/search_24px" class="cls-3" d="M14.929,16.32h0l-4.664-4.655v-.737l-.252-.262a6.074,6.074,0,1,1,.653-.652l.262.252h.737l4.656,4.665-1.39,1.39ZM6.065,1.867a4.2,4.2,0,1,0,4.2,4.2A4.2,4.2,0,0,0,6.065,1.867Z" transform="translate(619.34 50.34)"/>
  </g>
</svg>
