<svg xmlns="http://www.w3.org/2000/svg" viewBox="0 0 24 24">
  <defs>
    <style>
      .cls-1 {
        fill: #fff;
        opacity: 0;
      }

      .cls-2 {
        fill: #121212;
        opacity: 0.251;
      }
    </style>
  </defs>
  <g id="abc-pasive" transform="translate(17316 23619)">
    <path id="Path_915" data-name="Path 915" class="cls-1" d="M0,0H24V24H0Z" transform="translate(-17316 -23619)"/>
    <path id="Path_916" data-name="Path 916" class="cls-2" d="M-12.349-5.389h-3.471l-.662,1.6h-1.773l3.332-7.477h1.709l3.343,7.477h-1.816ZM-12.894-6.7-14.08-9.566-15.265-6.7ZM-3.6-7.675A1.972,1.972,0,0,1-2.6-7a1.87,1.87,0,0,1,.363,1.17A1.728,1.728,0,0,1-3-4.316a3.9,3.9,0,0,1-2.227.529H-9.092v-7.477h3.653a3.576,3.576,0,0,1,2.1.523A1.657,1.657,0,0,1-2.608-9.32a1.823,1.823,0,0,1-.262.972A1.833,1.833,0,0,1-3.6-7.675Zm-3.77-2.286V-8.2h1.72a1.736,1.736,0,0,0,.972-.224.748.748,0,0,0,.331-.662.735.735,0,0,0-.331-.657,1.77,1.77,0,0,0-.972-.219Zm2.019,4.87a1.917,1.917,0,0,0,1.031-.224.768.768,0,0,0,.347-.694q0-.929-1.378-.929H-7.372V-5.09ZM2.657-3.659a4.3,4.3,0,0,1-2.067-.5A3.707,3.707,0,0,1-.862-5.534a3.8,3.8,0,0,1-.529-1.992A3.8,3.8,0,0,1-.862-9.518,3.707,3.707,0,0,1,.59-10.9a4.317,4.317,0,0,1,2.077-.5,4.357,4.357,0,0,1,1.757.342,3.519,3.519,0,0,1,1.319.983L4.633-9.042a2.388,2.388,0,0,0-1.88-.876,2.5,2.5,0,0,0-1.239.3,2.164,2.164,0,0,0-.849.849,2.5,2.5,0,0,0-.3,1.239,2.5,2.5,0,0,0,.3,1.239,2.164,2.164,0,0,0,.849.849,2.5,2.5,0,0,0,1.239.3,2.377,2.377,0,0,0,1.88-.887L5.744-4.994A3.462,3.462,0,0,1,4.42-4,4.4,4.4,0,0,1,2.657-3.659Z" transform="translate(-17297.744 -23599.607)"/>
  </g>
</svg>
