<svg xmlns="http://www.w3.org/2000/svg" viewBox="0 0 25 25">
  <defs>
    <style>
      .cls-1 {
        opacity: 0.496;
      }

      .cls-2 {
        fill: #121212;
      }
    </style>
  </defs>
  <g id="basket" class="cls-1" transform="translate(-249 -586)">
    <path id="Path_240" data-name="Path 240" class="cls-2" d="M24.856,17.04a.8.8,0,0,0-.624-.344L8.724,16.026a.8.8,0,0,0-.069,1.608l14.458.625-2.843,8.9H7.62L5.335,14.672a.8.8,0,0,0-.5-.6L1.1,11.2a.8.8,0,0,0-.587,1.5l3.328,2.7L6.163,28.11a.8.8,0,0,0,.789.659h.386l-.881,2.456a.671.671,0,0,0,.629.9H7.7a2.406,2.406,0,1,0,3.577,0h5.247a2.406,2.406,0,1,0,3.577,0h.751a.671.671,0,0,0,0-1.342H8.037l.722-2.012h12.1a.8.8,0,0,0,.764-.559l3.342-10.464A.806.806,0,0,0,24.856,17.04ZM9.492,34.807a1.073,1.073,0,1,1,1.069-1.073A1.072,1.072,0,0,1,9.492,34.807Zm8.823,0a1.073,1.073,0,1,1,1.069-1.073A1.072,1.072,0,0,1,18.315,34.807Z" transform="translate(249 574.852)"/>
  </g>
</svg>
