<svg xmlns="http://www.w3.org/2000/svg" viewBox="0 0 25 25">
  <defs>
    <style>
      .cls-1 {
        fill: #fff;
        opacity: 0;
      }

      .cls-2 {
        fill: none;
      }

      .cls-3, .cls-4 {
        stroke: none;
      }

      .cls-4 {
        fill: #121212;
      }
    </style>
  </defs>
  <g id="booking" transform="translate(17618 23466)">
    <path id="Path_900" data-name="Path 900" class="cls-1" d="M0,0H25V25H0Z" transform="translate(-17618 -23466)"/>
    <g id="bookmark-ribbon" transform="translate(-17615 -23466)">
      <g id="bookmark" transform="translate(0)">
        <g id="Path_300" data-name="Path 300" class="cls-2" transform="translate(-51)">
          <path class="cls-3" d="M67.286,0H53.714A2.755,2.755,0,0,0,51,2.778V25l9.5-4.167L70,25V2.778A2.755,2.755,0,0,0,67.286,0Z"/>
          <path class="cls-4" d="M 53.71427917480469 1 C 52.76901245117188 1 52 1.797510147094727 52 2.777780532836914 L 52 23.46944618225098 L 60.09833526611328 19.91753959655762 L 60.49999618530273 19.74137115478516 L 60.90165710449219 19.91753959655762 L 69 23.46944618225098 L 69 2.777780532836914 C 69 1.797510147094727 68.23096466064453 1 67.28569793701172 1 L 53.71427917480469 1 M 53.71427917480469 0 L 67.28569793701172 0 C 68.77854919433594 0 70 1.25 70 2.777780532836914 L 70 25 L 60.49999618530273 20.83333015441895 L 51 25 L 51 2.777780532836914 C 51 1.25 52.22142791748047 0 53.71427917480469 0 Z"/>
        </g>
      </g>
    </g>
  </g>
</svg>
