<svg xmlns="http://www.w3.org/2000/svg" viewBox="0 0 25 25">
  <defs>
    <style>
      .cls-1 {
        opacity: 0.5;
      }

      .cls-2, .cls-3 {
        fill: #121212;
      }

      .cls-2 {
        opacity: 0;
      }
    </style>
  </defs>
  <g id="dashboad" class="cls-1" transform="translate(-61 -411)">
    <path id="Path_412" data-name="Path 412" class="cls-2" d="M0,0H25V25H0Z" transform="translate(61 411)"/>
    <path id="Path_409" data-name="Path 409" class="cls-3" d="M207.7,123.786a.972.972,0,0,0-1.241-.117c-1.461,1-8.791,6.043-9.578,6.835a2.965,2.965,0,0,0,0,4.17,2.92,2.92,0,0,0,4.143,0c.788-.793,5.8-8.169,6.792-9.639A.988.988,0,0,0,207.7,123.786Zm-8.057,9.5a.973.973,0,0,1-1.381,0,.988.988,0,0,1,0-1.39c.306-.3,2.387-1.8,4.947-3.589C201.434,130.882,199.95,132.976,199.647,133.284Z" transform="translate(-125.457 293.49)"/>
    <path id="Path_410" data-name="Path 410" class="cls-3" d="M4.5,69.65,3.3,70.242a10.625,10.625,0,0,1-.658-8.931l1.381.667a.972.972,0,0,0,1.3-.461.986.986,0,0,0-.458-1.311L3.5,59.547a10.553,10.553,0,0,1,8.022-5.037v1.478a.977.977,0,1,0,1.953,0V54.509a10.374,10.374,0,0,1,3.358.89.974.974,0,0,0,1.292-.491.985.985,0,0,0-.488-1.3A12.45,12.45,0,0,0,3.661,56.184,12.61,12.61,0,0,0,2.118,72.062a.972.972,0,0,0,1.24.337l2-.983a.986.986,0,0,0,.45-1.314A.974.974,0,0,0,4.5,69.65Z" transform="translate(61 361.002)"/>
    <path id="Path_411" data-name="Path 411" class="cls-3" d="M394.85,192.073a.974.974,0,0,0-1.292-.491.985.985,0,0,0-.488,1.3,10.64,10.64,0,0,1-.42,9.533l-1.259-.6a.974.974,0,0,0-1.3.465.986.986,0,0,0,.462,1.31l2.051.983a.972.972,0,0,0,1.232-.341,12.619,12.619,0,0,0,1.016-12.154Z" transform="translate(-309.952 228.836)"/>
  </g>
</svg>
