<svg xmlns="http://www.w3.org/2000/svg" viewBox="0 0 25 25">
  <defs>
    <style>
      .cls-1 {
        opacity: 0.498;
      }

      .cls-2 {
        fill: #fff;
        opacity: 0;
      }

      .cls-3 {
        fill: #121212;
      }
    </style>
  </defs>
  <g id="deal" class="cls-1" transform="translate(17618 23437)">
    <path id="Path_901" data-name="Path 901" class="cls-2" d="M0,0H25V25H0Z" transform="translate(-17618 -23437)"/>
    <g id="handshake_1_" data-name="handshake (1)" transform="translate(-17618 -23433)">
      <g id="Group_1233" data-name="Group 1233" transform="translate(0 0)">
        <path id="Path_911" data-name="Path 911" class="cls-3" d="M25,91.658a1.851,1.851,0,0,0-.359-1.116L22.66,87.927a1.684,1.684,0,0,0-1.341-.657,1.614,1.614,0,0,0-.876.253l-1.931,1.24a1.72,1.72,0,0,1-.888.223,1.567,1.567,0,0,1-.681-.138L15.052,87.9a2.219,2.219,0,0,0-.987-.214,2.4,2.4,0,0,0-1.388.413l-.221.16-.751-.386a2.759,2.759,0,0,0-1.232-.261,2.867,2.867,0,0,0-1.131.214l-1.288.567a2.291,2.291,0,0,1-.874.154,2.29,2.29,0,0,1-.874-.154l-1.289-.567a1.826,1.826,0,0,0-.736-.148,2.181,2.181,0,0,0-.837.169,1.9,1.9,0,0,0-.706.5L.389,91.063a1.607,1.607,0,0,0,.149,2.248l2.19,1.928L1.689,96.357a1.633,1.633,0,0,0,.053,2.261l.211.207a1.531,1.531,0,0,0,.687.384,1.617,1.617,0,0,0,.288,1.918h0l.211.208a1.53,1.53,0,0,0,1.683.314,1.593,1.593,0,0,0,.431.774l.211.207A1.527,1.527,0,0,0,7.4,102.8a1.6,1.6,0,0,0,.405.687l.211.208a1.533,1.533,0,0,0,2.2-.054l.918-.989,1.247,1.191a1.532,1.532,0,0,0,2.2-.082l.2-.22a1.6,1.6,0,0,0,.349-.651l.483.46a1.534,1.534,0,0,0,2.2-.084l.2-.22a1.6,1.6,0,0,0,.4-.883,1.518,1.518,0,0,0,.387.057,1.541,1.541,0,0,0,1.142-.509l.2-.22a1.62,1.62,0,0,0,.415-1.089,1.682,1.682,0,0,0-.043-.359,1.527,1.527,0,0,0,.934-.488l.2-.22a1.635,1.635,0,0,0-.081-2.261l-.372-.355,3.361-3.834A1.86,1.86,0,0,0,25,91.658ZM3.028,98.393a.7.7,0,0,1-.488-.2l-.211-.207A.743.743,0,0,1,2.3,96.959l2.128-2.291a.7.7,0,0,1,1-.025l.21.207a1.4,1.4,0,0,1,.218.527.739.739,0,0,1-.126.411l-2.3,2.469A.7.7,0,0,1,3.028,98.393Zm1.7,2.285a.7.7,0,0,1-1,.024l-.211-.207h0a.746.746,0,0,1-.024-1.028s2.836-3.046,2.86-3.075a.695.695,0,0,1,.979,0l.211.208a.744.744,0,0,1,.024,1.028Zm2.325,1.3a.7.7,0,0,1-1,.024l-.212-.207a.739.739,0,0,1-.062-.979l1.975-2.127a.692.692,0,0,1,.962.01l.212.207a.744.744,0,0,1,.024,1.028Zm3.753-.224-1.2,1.291a.7.7,0,0,1-1,.024l-.211-.207a.744.744,0,0,1-.024-1.028l1.2-1.29a.7.7,0,0,1,1-.024l.212.207a.745.745,0,0,1,.023,1.028Zm10.412-3.5a.733.733,0,0,1-.189.494l-.2.22a.7.7,0,0,1-1,.038l-3.346-3.193-.579.639,3.582,3.424a.744.744,0,0,1,.037,1.028l-.2.22a.7.7,0,0,1-1,.038l-3.347-3.193L14.4,98.6l2.971,2.834a.743.743,0,0,1,.029,1.018l-.2.22a.7.7,0,0,1-1,.038l-2.965-2.824h0l-.577.64h0l.011.011,1.485,1.414a.736.736,0,0,1,.013,1l-.2.22a.7.7,0,0,1-1,.037l-1.293-1.235a1.637,1.637,0,0,0,.175-.723,1.617,1.617,0,0,0-.481-1.158l-.212-.208a1.532,1.532,0,0,0-1.074-.44c-.03,0-.06.007-.089.009,0-.007,0-.015,0-.022a3.1,3.1,0,0,0-.481-1.159L9.3,98.063a1.535,1.535,0,0,0-.784-.412,1.639,1.639,0,0,0,.092-.53,1.619,1.619,0,0,0-.481-1.158l-.211-.207a1.535,1.535,0,0,0-1.075-.441c-.045,0-.089.009-.134.013a1.616,1.616,0,0,0-.477-1.108h0l-.211-.207a1.532,1.532,0,0,0-2.2.053l-.5.541L1.091,92.65a.719.719,0,0,1-.066-1.006l2.348-2.713a1.071,1.071,0,0,1,.392-.273,1.36,1.36,0,0,1,.516-.1,1,1,0,0,1,.4.078l1.289.567a3.085,3.085,0,0,0,1.209.224A3.085,3.085,0,0,0,8.389,89.2l1.288-.567a2.053,2.053,0,0,1,.8-.144,1.969,1.969,0,0,1,.851.169l.344.177-1.314.953a1.6,1.6,0,0,0-.346,2.222h0l.174.241a1.678,1.678,0,0,0,1.357.686,1.609,1.609,0,0,0,.849-.239l.786-.487a1.263,1.263,0,0,1,.652-.164,1.328,1.328,0,0,1,.768.223l2.174,1.608a21.858,21.858,0,0,1,1.708,1.438l2.516,2.4A.734.734,0,0,1,21.217,98.248ZM23.928,92.3l-3.352,3.824-1.522-1.451a22.546,22.546,0,0,0-1.79-1.507l-2.173-1.608a2.148,2.148,0,0,0-1.266-.387,2.088,2.088,0,0,0-1.092.289l-.785.487a.779.779,0,0,1-.41.113.838.838,0,0,1-.675-.333l-.173-.24h0a.709.709,0,0,1,.154-.989l2.323-1.684a1.6,1.6,0,0,1,.9-.253,1.4,1.4,0,0,1,.615.126l1.891.945a2.379,2.379,0,0,0,1.052.226,2.526,2.526,0,0,0,1.338-.356l1.932-1.24a.784.784,0,0,1,.426-.12.847.847,0,0,1,.67.32l1.981,2.615a.972.972,0,0,1,.18.58A.988.988,0,0,1,23.928,92.3Z" transform="translate(0 -87.27)"/>
      </g>
    </g>
  </g>
</svg>
