<svg xmlns="http://www.w3.org/2000/svg" xmlns:xlink="http://www.w3.org/1999/xlink" viewBox="0 0 108 36">
  <defs>
    <style>
      .cls-1 {
        fill: none;
      }

      .cls-2 {
        clip-path: url(#clip-path);
      }

      .cls-3 {
        fill: url(#linear-gradient);
      }

      .cls-4 {
        clip-path: url(#clip-path-2);
      }

      .cls-5 {
        fill: url(#linear-gradient-2);
      }

      .cls-6 {
        fill: #3a444c;
      }
    </style>
    <clipPath id="clip-path">
      <path id="Clip_2" data-name="Clip 2" class="cls-1" d="M20.359.158,0,11.013l2.874,23.6a1.291,1.291,0,0,0,2.426.412h0L22.107,1.815A1.258,1.258,0,0,0,20.971,0h0a1.294,1.294,0,0,0-.612.158"/>
    </clipPath>
    <linearGradient id="linear-gradient" x1="0.461" y1="1.059" x2="0.514" y2="-0.146" gradientUnits="objectBoundingBox">
      <stop offset="0" stop-color="#fb6d00"/>
      <stop offset="1" stop-color="#f61d5e"/>
    </linearGradient>
    <clipPath id="clip-path-2">
      <path id="Clip_5" data-name="Clip 5" class="cls-1" d="M13.154.375.668,12.871A2.277,2.277,0,0,0,.34,15.678h0L9.16,29.956a1.274,1.274,0,0,0,2.292-1.073h0L7.559,17.453A1.207,1.207,0,0,1,8.13,16h0l8.428-4.557L15.319,1.118A1.269,1.269,0,0,0,14.048,0h0a1.252,1.252,0,0,0-.894.375"/>
    </clipPath>
    <linearGradient id="linear-gradient-2" x1="0.458" y1="1.247" x2="0.531" y2="-0.181" xlink:href="#linear-gradient"/>
  </defs>
  <g id="Group" transform="translate(-62 -41)">
    <g id="Group_2" data-name="Group 2" transform="translate(62 41)">
      <g id="Group_3" data-name="Group 3" transform="translate(16.558 0.277)">
        <path id="Clip_2-2" data-name="Clip 2" class="cls-1" d="M20.359.158,0,11.013l2.874,23.6a1.291,1.291,0,0,0,2.426.412h0L22.107,1.815A1.258,1.258,0,0,0,20.971,0h0a1.294,1.294,0,0,0-.612.158"/>
        <g id="Group_3-2" data-name="Group 3" class="cls-2">
          <g id="Fill_1" data-name="Fill 1">
            <path id="Fill_1-2" data-name="Fill 1" class="cls-3" d="M20.359.158,0,11.013l2.874,23.6a1.291,1.291,0,0,0,2.426.412h0L22.107,1.815A1.258,1.258,0,0,0,20.971,0h0a1.294,1.294,0,0,0-.612.158"/>
            <path id="Fill_1-3" data-name="Fill 1" class="cls-1" d="M20.359.158,0,11.013l2.874,23.6a1.291,1.291,0,0,0,2.426.412h0L22.107,1.815A1.258,1.258,0,0,0,20.971,0h0a1.294,1.294,0,0,0-.612.158"/>
            <path id="Fill_1-4" data-name="Fill 1" class="cls-1" d="M20.359.158,0,11.013l2.874,23.6a1.291,1.291,0,0,0,2.426.412h0L22.107,1.815A1.258,1.258,0,0,0,20.971,0h0a1.294,1.294,0,0,0-.612.158"/>
          </g>
        </g>
      </g>
      <g id="Group_6" data-name="Group 6">
        <path id="Clip_5-2" data-name="Clip 5" class="cls-1" d="M13.154.375.668,12.871A2.277,2.277,0,0,0,.34,15.678h0L9.16,29.956a1.274,1.274,0,0,0,2.292-1.073h0L7.559,17.453A1.207,1.207,0,0,1,8.13,16h0l8.428-4.557L15.319,1.118A1.269,1.269,0,0,0,14.048,0h0a1.252,1.252,0,0,0-.894.375"/>
        <g id="Group_6-2" data-name="Group 6" class="cls-4">
          <g id="Fill_4" data-name="Fill 4">
            <path id="Fill_4-2" data-name="Fill 4" class="cls-5" d="M13.154.375.668,12.871A2.277,2.277,0,0,0,.34,15.678h0L9.16,29.956a1.274,1.274,0,0,0,2.292-1.073h0L7.559,17.453A1.207,1.207,0,0,1,8.13,16h0l8.428-4.557L15.319,1.118A1.269,1.269,0,0,0,14.048,0h0a1.252,1.252,0,0,0-.894.375"/>
            <path id="Fill_4-3" data-name="Fill 4" class="cls-1" d="M13.154.375.668,12.871A2.277,2.277,0,0,0,.34,15.678h0L9.16,29.956a1.274,1.274,0,0,0,2.292-1.073h0L7.559,17.453A1.207,1.207,0,0,1,8.13,16h0l8.428-4.557L15.319,1.118A1.269,1.269,0,0,0,14.048,0h0a1.252,1.252,0,0,0-.894.375"/>
            <path id="Fill_4-4" data-name="Fill 4" class="cls-1" d="M13.154.375.668,12.871A2.277,2.277,0,0,0,.34,15.678h0L9.16,29.956a1.274,1.274,0,0,0,2.292-1.073h0L7.559,17.453A1.207,1.207,0,0,1,8.13,16h0l8.428-4.557L15.319,1.118A1.269,1.269,0,0,0,14.048,0h0a1.252,1.252,0,0,0-.894.375"/>
          </g>
        </g>
      </g>
    </g>
    <g id="Group_17" data-name="Group 17" transform="translate(106.13 51.531)">
      <path id="Fill_7" data-name="Fill 7" class="cls-6" d="M13.884,0,8.14,14.662H5.88L0,0H2.673L7,11.218,11.238,0Z"/>
      <path id="Fill_9" data-name="Fill 9" class="cls-6" d="M5.923,11.861a5.911,5.911,0,0,1-4.232-1.7A5.941,5.941,0,0,1,0,5.924,5.923,5.923,0,0,1,1.691,1.688,5.922,5.922,0,0,1,5.923,0a5.754,5.754,0,0,1,4.16,1.683L10.357.269h1.805V11.58H10.275L10.048,10.2A5.753,5.753,0,0,1,5.923,11.861Zm.183-9.648A3.73,3.73,0,0,0,3.439,3.275,3.7,3.7,0,0,0,2.381,5.924a3.706,3.706,0,0,0,1.059,2.65A3.73,3.73,0,0,0,6.106,9.636,3.712,3.712,0,0,0,8.766,8.58,3.717,3.717,0,0,0,9.817,5.924,3.716,3.716,0,0,0,8.766,3.27,3.713,3.713,0,0,0,6.106,2.214Z" transform="translate(13.874 3.076)"/>
      <path id="Fill_11" data-name="Fill 11" class="cls-6" d="M5.923,11.861a5.911,5.911,0,0,1-4.232-1.7A5.941,5.941,0,0,1,0,5.924,5.923,5.923,0,0,1,1.691,1.688,5.922,5.922,0,0,1,5.923,0a5.754,5.754,0,0,1,4.16,1.683L10.357.269h1.805V11.58H10.275L10.048,10.2A5.753,5.753,0,0,1,5.923,11.861Zm.183-9.648A3.73,3.73,0,0,0,3.439,3.275,3.7,3.7,0,0,0,2.381,5.924a3.706,3.706,0,0,0,1.059,2.65A3.73,3.73,0,0,0,6.106,9.636,3.712,3.712,0,0,0,8.766,8.58,3.717,3.717,0,0,0,9.817,5.924,3.716,3.716,0,0,0,8.766,3.27,3.713,3.713,0,0,0,6.106,2.214Z" transform="translate(28.536 3.076)"/>
      <path id="Fill_13" data-name="Fill 13" class="cls-6" d="M7.8,11.839v2.112H6.064a3.728,3.728,0,0,1-4.03-4.028V4.632H0v-.45L3.957,0h.4V2.64H7.739V4.632H4.373V9.74a1.91,1.91,0,0,0,2.132,2.1Z" transform="translate(42.599 0.711)"/>
      <path id="Fill_15" data-name="Fill 15" class="cls-6" d="M5.923,11.861a5.911,5.911,0,0,1-4.232-1.7A5.941,5.941,0,0,1,0,5.924,5.923,5.923,0,0,1,1.691,1.688,5.922,5.922,0,0,1,5.923,0a5.754,5.754,0,0,1,4.16,1.683L10.357.269h1.805V11.58H10.275L10.048,10.2A5.753,5.753,0,0,1,5.923,11.861Zm.183-9.648A3.73,3.73,0,0,0,3.439,3.275,3.7,3.7,0,0,0,2.381,5.924a3.706,3.706,0,0,0,1.059,2.65A3.73,3.73,0,0,0,6.106,9.636,3.712,3.712,0,0,0,8.766,8.58,3.717,3.717,0,0,0,9.817,5.924,3.716,3.716,0,0,0,8.766,3.27,3.713,3.713,0,0,0,6.106,2.214Z" transform="translate(51.709 3.076)"/>
    </g>
  </g>
</svg>
