<svg xmlns="http://www.w3.org/2000/svg" xmlns:xlink="http://www.w3.org/1999/xlink" viewBox="0 0 45 45">
  <defs>
    <style>
      .cls-1 {
        fill: none;
      }

      .cls-2 {
        fill: #21cbb8;
      }

      .cls-3 {
        fill: rgba(0,0,0,0);
      }

      .cls-4 {
        clip-path: url(#clip-path);
      }

      .cls-5 {
        clip-path: url(#clip-path-2);
      }
    </style>
    <clipPath id="clip-path">
      <path id="icon_places_spa_24px" data-name="icon/places/spa_24px" class="cls-1" d="M22.5,45h0a24.21,24.21,0,0,1-4.432-1.146A27.075,27.075,0,0,1,5.093,34.006,27.431,27.431,0,0,1,0,18a26.443,26.443,0,0,1,15.574,5.027c-.1-.068-.208-.133-.319-.2L15.22,22.8,15.2,22.79c-.182-.113-.333-.209-.482-.312a5.243,5.243,0,0,0,.475.316l.029.018.016.01c.141.084.269.165.379.241a27.086,27.086,0,0,1,6.885,7.2A26.885,26.885,0,0,1,45,18a27.42,27.42,0,0,1-5.093,16.006,27.075,27.075,0,0,1-12.974,9.848A28.813,28.813,0,0,1,22.5,45ZM5.085,23.085h0A23.064,23.064,0,0,0,10.2,33.194a22.647,22.647,0,0,0,9.4,6.429,20.371,20.371,0,0,0,2.88.81,28.313,28.313,0,0,0,2.993-.832,22.413,22.413,0,0,0,9.347-6.413,23.146,23.146,0,0,0,5.1-10.125,22.368,22.368,0,0,0-7.223,3.149l.024.047-.051.034-.083.054c-.156.1-.317.207-.474.295l-.158.111a22.814,22.814,0,0,0-5.692,5.986L22.5,38.475l-3.756-5.759A22.255,22.255,0,0,0,13.1,26.753l-.158-.089a9.155,9.155,0,0,1-.833-.533l-.044-.03.045-.022a22.75,22.75,0,0,0-7.021-2.993Zm17.415,0,0,0a31.08,31.08,0,0,0-7.851-5.915A27.549,27.549,0,0,1,22.636,0a26.672,26.672,0,0,1,7.717,17.168A32.268,32.268,0,0,0,22.5,23.083Zm.113-15.909A22.893,22.893,0,0,0,19.529,14.8a35.619,35.619,0,0,1,2.993,2.183,30.915,30.915,0,0,1,3.015-2.205A22.764,22.764,0,0,0,22.613,7.177Z" transform="translate(0 0)"/>
    </clipPath>
    <clipPath id="clip-path-2">
      <rect id="Rectangle" class="cls-2" width="54.001" height="54.001"/>
    </clipPath>
  </defs>
  <g id="Home_garden" data-name="Home/garden" transform="translate(-78 -403)">
    <rect id="icon_action_stars_24px_background" data-name="icon/action/stars_24px background" class="cls-3" width="45" height="45" transform="translate(78 403)"/>
    <path id="icon_places_spa_24px-2" data-name="icon/places/spa_24px" class="cls-1" d="M14.5,29h0a15.6,15.6,0,0,1-2.856-.739,17.448,17.448,0,0,1-8.361-6.346A17.677,17.677,0,0,1,0,11.6a17.041,17.041,0,0,1,10.036,3.24c-.066-.044-.134-.086-.205-.13L9.808,14.7l-.014-.009c-.117-.073-.215-.135-.311-.2a3.378,3.378,0,0,0,.306.2l.019.012.01.007c.091.054.173.106.244.155A17.455,17.455,0,0,1,14.5,19.5,17.325,17.325,0,0,1,29,11.6a17.67,17.67,0,0,1-3.282,10.315,17.448,17.448,0,0,1-8.361,6.346A18.568,18.568,0,0,1,14.5,29ZM3.277,14.877h0a14.863,14.863,0,0,0,3.3,6.514,14.594,14.594,0,0,0,6.058,4.143,13.128,13.128,0,0,0,1.856.522,18.245,18.245,0,0,0,1.929-.536,14.444,14.444,0,0,0,6.024-4.133,14.916,14.916,0,0,0,3.285-6.525,14.415,14.415,0,0,0-4.655,2.029l.016.03-.033.022L21,16.978c-.1.065-.2.133-.306.19l-.1.072A14.7,14.7,0,0,0,16.922,21.1l-2.422,3.7-2.421-3.711a14.342,14.342,0,0,0-3.64-3.843l-.1-.057a5.9,5.9,0,0,1-.537-.343l-.028-.019.029-.014a14.661,14.661,0,0,0-4.524-1.929Zm11.223,0h0a20.029,20.029,0,0,0-5.059-3.812A17.753,17.753,0,0,1,14.587,0,17.188,17.188,0,0,1,19.56,11.064,20.8,20.8,0,0,0,14.5,14.875Zm.073-10.252a14.753,14.753,0,0,0-1.987,4.916,22.955,22.955,0,0,1,1.929,1.407,19.922,19.922,0,0,1,1.943-1.421A14.67,14.67,0,0,0,14.573,4.625Z" transform="translate(86 411)"/>
    <g id="Group_5" data-name="Group 5" class="cls-4" transform="translate(78 403)">
      <g id="_Color" data-name="↳ Color" transform="translate(-4.5 -4.5)">
        <rect id="_Color_background" data-name="↳ Color background" class="cls-2" width="54.001" height="54.001"/>
        <rect id="Rectangle-2" data-name="Rectangle" class="cls-2" width="54.001" height="54.001"/>
      </g>
    </g>
  </g>
</svg>
