<svg xmlns="http://www.w3.org/2000/svg" viewBox="0 0 50 50.199">
  <defs>
    <style>
      .cls-1 {
        fill: #fff;
        opacity: 0;
      }

      .cls-2 {
        fill: #b246ce;
        stroke: #b246ce;
        stroke-width: 0.2px;
      }
    </style>
  </defs>
  <g id="lamp" transform="translate(-80 -610.9)">
    <g id="Group_1235" data-name="Group 1235">
      <path id="Path_830" data-name="Path 830" class="cls-1" d="M0,0H50V50H0Z" transform="translate(80 611)"/>
      <g id="lamp-2" data-name="lamp" transform="translate(85.209 611)">
        <path id="Union_1" data-name="Union 1" class="cls-2" d="M19,50a4.8,4.8,0,0,1-4.745-4.85v-7a10.044,10.044,0,0,0-3.378-7.474,14.05,14.05,0,0,1-.587-20.32,13.332,13.332,0,0,1,19.157.126,14.077,14.077,0,0,1-.8,20.251,9.975,9.975,0,0,0-3.313,7.507v6.906A4.8,4.8,0,0,1,20.588,50Zm0-1.953h1.592a2.844,2.844,0,0,0,2.679-1.953h-6.95A2.844,2.844,0,0,0,19,48.047ZM16.161,44.14h7.261V42.7H16.161Zm0-3.389h7.261V39.315H16.161Zm3.123-19.965a3.737,3.737,0,0,1,3.692,3.773v1.513a3.161,3.161,0,0,1-1.286,2.554v3.21s0,.009,0,.013a2.951,2.951,0,0,1,.968,2.193v3.32h.8a11.89,11.89,0,0,1,3.946-8.1,12.024,12.024,0,0,0,4.048-9.027,11.834,11.834,0,0,0-11.5-11.913,11.435,11.435,0,0,0-8.32,3.434,12.067,12.067,0,0,0,.5,17.456,12.034,12.034,0,0,1,4,8.153h.791v-3.32a2.9,2.9,0,0,1,2.854-2.929v-1.9h-.634a2.6,2.6,0,0,1,0-5.191,2.516,2.516,0,0,1,1.919.9v-.359a1.8,1.8,0,0,0-1.781-1.82H17.563a.977.977,0,0,1,0-1.953Zm-.448,13.256v3.32h1.911v-3.32a.956.956,0,1,0-1.911,0Zm-.318-7.423a.636.636,0,0,0,.628.642h.634v-.637a.631.631,0,1,0-1.262-.006Zm13.917,7.919-1.824-1.865a.992.992,0,0,1,0-1.381.941.941,0,0,1,1.351,0l1.824,1.864a.992.992,0,0,1,0,1.381.94.94,0,0,1-1.351,0Zm-26.638,0a.992.992,0,0,1,0-1.381l1.824-1.864a.94.94,0,0,1,1.351,0,.991.991,0,0,1,0,1.381L7.148,34.537a.94.94,0,0,1-1.351,0ZM36.049,21.208a.977.977,0,0,1,0-1.953h2.579a.977.977,0,0,1,0,1.953Zm-9.187-.977a7.2,7.2,0,0,0-3.6-6.263.988.988,0,0,1-.37-1.328.945.945,0,0,1,1.3-.378,9.165,9.165,0,0,1,4.585,7.97.956.956,0,1,1-1.911,0ZM.955,21.208a.977.977,0,0,1,0-1.953H3.535a.977.977,0,0,1,0,1.953Zm19.016-8.139h-.015a.977.977,0,0,1,.013-1.953h.015a.977.977,0,0,1,0,1.953Zm10.64-3.9a.992.992,0,0,1,0-1.381l1.824-1.864a.94.94,0,0,1,1.351,0,.992.992,0,0,1,0,1.381L31.963,9.171a.94.94,0,0,1-1.351,0Zm-22.991,0L5.8,7.307a.993.993,0,0,1,0-1.381.942.942,0,0,1,1.351,0L8.972,7.79a.991.991,0,0,1,0,1.381.94.94,0,0,1-1.351,0ZM18.836,3.613V.977a.956.956,0,1,1,1.911,0V3.613a.956.956,0,1,1-1.911,0Z" transform="translate(0 0)"/>
      </g>
    </g>
  </g>
</svg>
