<svg xmlns="http://www.w3.org/2000/svg" viewBox="0 0 100 100.199">
  <defs>
    <style>
      .cls-1 {
        fill: #fff;
        opacity: 0;
      }

      .cls-2 {
        fill: #b246ce;
        stroke: #b246ce;
        stroke-width: 0.2px;
      }
    </style>
  </defs>
  <g id="lamp" transform="translate(-80 -610.9)">
    <path id="Path_830" data-name="Path 830" class="cls-1" d="M0,0H100V100H0Z" transform="translate(80 611)"/>
    <g id="lamp-2" data-name="lamp" transform="translate(90.417 611)">
      <path id="Union_1" data-name="Union 1" class="cls-2" d="M37.991,100a9.608,9.608,0,0,1-9.49-9.7V76.307A20.088,20.088,0,0,0,21.746,61.36a28.1,28.1,0,0,1-1.174-40.639,26.664,26.664,0,0,1,38.314.252,28.154,28.154,0,0,1-1.594,40.5,19.949,19.949,0,0,0-6.627,15.013V90.3a9.608,9.608,0,0,1-9.489,9.7Zm0-3.906h3.184a5.688,5.688,0,0,0,5.358-3.906h-13.9A5.688,5.688,0,0,0,37.991,96.094Zm-5.669-7.813H46.844V85.409H32.323Zm0-6.779H46.844V78.63H32.323Zm6.246-39.931a7.475,7.475,0,0,1,7.383,7.547v3.025a6.323,6.323,0,0,1-2.571,5.109v6.419c0,.009,0,.018,0,.026a5.9,5.9,0,0,1,1.936,4.385v6.64h1.59A23.78,23.78,0,0,1,54.8,58.516a24.047,24.047,0,0,0,8.1-18.053c0-12.969-10.318-23.658-23-23.826A22.869,22.869,0,0,0,23.253,23.5,24.134,24.134,0,0,0,24.26,58.417a24.067,24.067,0,0,1,8.01,16.306h1.582v-6.64a5.8,5.8,0,0,1,5.708-5.859v-3.8H38.292a5.192,5.192,0,0,1,0-10.381,5.032,5.032,0,0,1,3.839,1.791v-.719a3.606,3.606,0,0,0-3.562-3.641H35.125a1.954,1.954,0,0,1,0-3.906Zm-.9,26.511v6.64h3.821v-6.64a1.911,1.911,0,1,0-3.821,0Zm-.637-14.846a1.272,1.272,0,0,0,1.256,1.285h1.267V53.248a1.262,1.262,0,1,0-2.524-.011ZM64.871,69.074l-3.648-3.729a1.984,1.984,0,0,1,0-2.762,1.881,1.881,0,0,1,2.7,0l3.647,3.728a1.984,1.984,0,0,1,0,2.763,1.881,1.881,0,0,1-2.7,0Zm-53.277,0a1.984,1.984,0,0,1,0-2.763l3.647-3.728a1.88,1.88,0,0,1,2.7,0,1.983,1.983,0,0,1,0,2.762L14.3,69.074a1.881,1.881,0,0,1-2.7,0ZM72.1,42.416a1.954,1.954,0,0,1,0-3.906h5.159a1.954,1.954,0,0,1,0,3.906ZM53.722,40.462a14.4,14.4,0,0,0-7.208-12.527,1.976,1.976,0,0,1-.74-2.657,1.889,1.889,0,0,1,2.6-.757,18.331,18.331,0,0,1,9.17,15.94,1.911,1.911,0,1,1-3.821,0ZM1.911,42.416a1.954,1.954,0,0,1,0-3.906H7.07a1.954,1.954,0,0,1,0,3.906ZM39.943,26.137h-.029a1.954,1.954,0,0,1,.025-3.906h.03a1.954,1.954,0,0,1,0,3.906Zm21.28-7.794a1.984,1.984,0,0,1,0-2.763l3.647-3.728a1.881,1.881,0,0,1,2.7,0,1.984,1.984,0,0,1,0,2.763l-3.647,3.729a1.881,1.881,0,0,1-2.7,0Zm-45.982,0-3.648-3.728a1.985,1.985,0,0,1,0-2.763,1.883,1.883,0,0,1,2.7,0l3.647,3.729a1.983,1.983,0,0,1,0,2.762,1.881,1.881,0,0,1-2.7,0ZM37.673,7.227V1.953a1.911,1.911,0,1,1,3.821,0V7.227a1.911,1.911,0,1,1-3.821,0Z" transform="translate(0 0)"/>
    </g>
  </g>
</svg>
