<svg xmlns="http://www.w3.org/2000/svg" viewBox="0 0 100 100">
  <defs>
    <style>
      .cls-1 {
        fill: #373a8a;
      }
    </style>
  </defs>
  <g id="oil-gauge" transform="translate(-452 -649)">
    <path id="Path_15" data-name="Path 15" class="cls-1" d="M60.166,38.734a30.209,30.209,0,0,0,1.124-8.089A30.645,30.645,0,1,0,30.151,61.264a30.63,30.63,0,1,0,30.015-22.53ZM30.645,58.065A27.419,27.419,0,1,1,58.065,30.645a27.172,27.172,0,0,1-1.311,8.213,30.766,30.766,0,0,0-3.589.565,24.187,24.187,0,1,0-40.779,7.063l2.435-2.115A20.961,20.961,0,0,1,9.75,32.258h6.379V29.032H9.759a20.846,20.846,0,0,1,.526-3.306l6.056,1.967,1-3.068-6.07-1.971a21.109,21.109,0,0,1,1.539-2.974l5.145,3.737,1.9-2.608L14.7,17.068A21.28,21.28,0,0,1,17.065,14.7l3.742,5.152,2.608-1.9L19.678,12.81a20.7,20.7,0,0,1,2.974-1.539l1.971,6.07,3.068-1-1.967-6.056a20.77,20.77,0,0,1,3.306-.525v6.366h3.226V9.759a20.846,20.846,0,0,1,3.306.526l-1.967,6.056,3.068,1,1.971-6.07a21.11,21.11,0,0,1,2.974,1.539l-3.737,5.145,2.608,1.9L44.219,14.7a21.205,21.205,0,0,1,2.367,2.368l-5.151,3.742,1.9,2.608,5.145-3.737a20.616,20.616,0,0,1,1.538,2.974l-6.069,1.971.995,3.068L51,25.723a20.86,20.86,0,0,1,.525,3.306H45.161v3.226h6.382a20.934,20.934,0,0,1-2.507,8.4,30.724,30.724,0,0,0-13.9,10.427,20.7,20.7,0,0,1-4.491.536,20.962,20.962,0,0,1-13.728-5.142L14.8,48.906a24.185,24.185,0,0,0,15.842,5.933c.7,0,1.413-.068,2.124-.134a30.656,30.656,0,0,0-1.545,3.334C31.033,58.049,30.84,58.065,30.645,58.065Zm29.032,38.71A27.419,27.419,0,1,1,87.1,69.355,27.45,27.45,0,0,1,59.677,96.774Zm0,0" transform="translate(452 649)"/>
    <path id="Path_16" data-name="Path 16" class="cls-1" d="M200.193,224A24.221,24.221,0,0,0,176,248.193v1.613h12.9v-1.613a11.27,11.27,0,0,1,18.833-8.376l-7.632,22.9a4.881,4.881,0,1,0,3.053,1.036l6.971-20.914a11.221,11.221,0,0,1,1.355,5.355v1.613h12.9v-1.613A24.221,24.221,0,0,0,200.193,224Zm0,45.161a1.613,1.613,0,1,1,1.613-1.613A1.614,1.614,0,0,1,200.193,269.161Zm14.426-22.581a14.442,14.442,0,0,0-3.212-7.576l1.607-4.818-3.059-1.021-1.124,3.371a14.5,14.5,0,0,0-23.063,10.044h-6.481a20.968,20.968,0,0,1,41.813,0Zm0,0" transform="translate(311.484 470.161)"/>
    <path id="Path_17" data-name="Path 17" class="cls-1" d="M380.9,32H368v9.677h12.9Zm-3.226,6.452h-6.452V35.226h6.452Zm0,0" transform="translate(158.194 623.451)"/>
    <path id="Path_18" data-name="Path 18" class="cls-1" d="M354.066,10.818l-5.034-5.034V4.839A4.845,4.845,0,0,0,344.194,0H328.065a4.845,4.845,0,0,0-4.839,4.839V26.1A4.832,4.832,0,0,0,320,30.645v4.839h32.258V30.645a4.832,4.832,0,0,0-3.226-4.542v-1.91h1.613a4.845,4.845,0,0,0,4.839-4.839V14.239A4.8,4.8,0,0,0,354.066,10.818Zm-26-7.592h16.129a1.614,1.614,0,0,1,1.613,1.613V25.806H326.452V4.839A1.614,1.614,0,0,1,328.065,3.226Zm20.968,29.032H323.226V30.645a1.614,1.614,0,0,1,1.613-1.613h22.581a1.614,1.614,0,0,1,1.613,1.613Zm3.226-12.9a1.614,1.614,0,0,1-1.613,1.613h-1.613V10.345l2.753,2.753a1.62,1.62,0,0,1,.473,1.14Zm0,0" transform="translate(196.516 649)"/>
    <path id="Path_19" data-name="Path 19" class="cls-1" d="M132.839,137.806a4.827,4.827,0,0,0,1.613-9.381V112h-3.226v16.426a4.827,4.827,0,0,0,1.613,9.381Zm0-6.452a1.613,1.613,0,1,1-1.613,1.613A1.614,1.614,0,0,1,132.839,131.355Zm0,0" transform="translate(349.807 559.58)"/>
  </g>
</svg>
