<svg xmlns="http://www.w3.org/2000/svg" viewBox="0 0 24 24">
  <defs>
    <style>
      .cls-1 {
        fill: #fb3b71;
      }
    </style>
  </defs>
  <g id="sent-mail" transform="translate(-331 -772)">
    <path id="sent-mail-2" data-name="sent-mail" class="cls-1" d="M22.8,11.539c-.107-.1.833,1.028.7,1.089L.207,23.8a.376.376,0,0,0-.007.669l5.5,2.192a.35.35,0,0,0,.373-.036l7.5-3.8L8.545,28.17a.378.378,0,0,0-.1.287l.5,6.735a.369.369,0,0,0,.246.324.35.35,0,0,0,.112.019.354.354,0,0,0,.272-.128l3.5-4.185L17.4,33.353a.349.349,0,0,0,.3.005.367.367,0,0,0,.2-.229L24,13.076A8.776,8.776,0,0,0,22.8,11.539Z" transform="translate(331 760.467)"/>
  </g>
</svg>
